<?xml version="1.0" standalone="no"?>
<!DOCTYPE svg PUBLIC "-//W3C//DTD SVG 20010904//EN"
 "http://www.w3.org/TR/2001/REC-SVG-20010904/DTD/svg10.dtd">
<svg version="1.0" xmlns="http://www.w3.org/2000/svg"
 width="1296.000000pt" height="1296.000000pt" viewBox="0 0 1296.000000 1296.000000"
 preserveAspectRatio="xMidYMid meet">
<metadata>
Created by potrace 1.11, written by Peter Selinger 2001-2013
</metadata>
<g transform="translate(0.000000,1296.000000) scale(0.100000,-0.100000)"
fill="#000000" stroke="none">
<path d="M4157 10388 c-2 -7 -1 -20 4 -29 4 -8 4 -21 -1 -29 -4 -7 -4 -24 1
-37 5 -14 5 -23 -1 -23 -6 0 -6 -9 -1 -22 5 -13 5 -33 0 -45 -5 -13 -4 -25 1
-28 7 -4 6 -13 0 -25 -6 -12 -7 -21 0 -25 5 -3 6 -15 1 -28 -5 -12 -5 -32 0
-44 5 -13 4 -25 -1 -28 -7 -4 -6 -13 0 -25 6 -12 7 -21 0 -25 -5 -3 -6 -15 0
-29 4 -12 4 -29 0 -36 -5 -8 -5 -19 0 -25 5 -6 5 -17 0 -25 -5 -8 -5 -21 1
-31 6 -11 5 -20 -1 -24 -6 -4 -7 -13 -1 -24 6 -10 6 -23 1 -31 -5 -8 -5 -21 0
-30 5 -9 5 -22 0 -30 -4 -7 -4 -24 1 -37 5 -14 5 -23 -1 -23 -6 0 -6 -9 -1
-22 5 -13 5 -33 0 -45 -5 -13 -4 -25 1 -28 7 -4 6 -13 0 -25 -6 -12 -7 -21 0
-25 5 -3 6 -15 1 -28 -5 -12 -5 -32 0 -44 5 -13 4 -25 -1 -28 -7 -4 -6 -13 0
-25 6 -12 7 -21 0 -25 -5 -3 -6 -15 -1 -28 5 -13 5 -30 0 -39 -6 -11 -5 -19 1
-23 6 -4 7 -13 1 -24 -6 -10 -6 -23 -1 -31 5 -8 5 -19 0 -25 -5 -6 -5 -17 -1
-24 5 -8 5 -27 1 -42 -5 -16 -5 -29 0 -29 5 0 5 -13 0 -30 -5 -17 -5 -30 0
-30 5 0 5 -13 0 -29 -4 -15 -4 -34 0 -42 5 -7 5 -20 0 -29 -5 -9 -4 -23 1 -32
6 -11 6 -19 -1 -23 -6 -4 -8 -11 -5 -16 8 -12 12 -89 5 -89 -7 0 -3 -77 4 -97
3 -7 1 -13 -4 -13 -6 0 -6 -9 0 -25 6 -15 6 -26 0 -30 -6 -4 -7 -13 -1 -24 6
-10 6 -23 1 -31 -5 -8 -6 -18 -4 -22 10 -16 13 -48 4 -48 -6 0 -6 -10 0 -25 6
-15 6 -26 0 -30 -6 -4 -7 -13 -1 -24 6 -10 6 -23 1 -31 -5 -8 -5 -21 0 -30 5
-9 4 -23 -1 -32 -6 -11 -6 -19 1 -23 7 -4 7 -12 0 -25 -6 -12 -7 -21 0 -25 5
-3 6 -13 3 -22 -8 -21 -8 -81 0 -89 3 -3 2 -17 -3 -30 -6 -14 -6 -26 0 -29 6
-3 6 -15 0 -30 -6 -15 -6 -25 0 -25 5 0 5 -12 0 -30 -5 -18 -5 -30 0 -30 6 0
6 -10 0 -25 -5 -14 -6 -25 -2 -25 4 0 7 -20 7 -45 0 -25 -3 -45 -7 -45 -4 0
-3 -11 2 -25 6 -15 6 -25 0 -25 -5 0 -5 -12 0 -30 5 -18 5 -30 0 -30 -6 0 -6
-10 0 -25 6 -15 6 -27 0 -30 -6 -3 -6 -15 0 -30 6 -15 6 -27 -1 -30 -5 -4 -7
-11 -4 -16 11 -17 14 -49 5 -49 -6 0 -6 -10 0 -25 6 -15 6 -26 0 -30 -6 -4 -7
-13 -1 -24 6 -10 6 -23 1 -31 -5 -8 -5 -21 0 -30 5 -9 4 -23 -1 -32 -6 -11 -6
-19 1 -23 7 -4 7 -12 0 -25 -7 -13 -7 -21 0 -25 6 -4 7 -13 2 -23 -9 -19 -8
-54 2 -70 3 -6 2 -13 -3 -17 -6 -3 -7 -15 -2 -28 5 -13 5 -30 0 -39 -6 -11 -5
-19 1 -23 7 -4 7 -12 0 -25 -6 -12 -7 -21 0 -25 6 -4 6 -15 0 -30 -6 -16 -6
-25 0 -25 6 0 6 -9 0 -24 -5 -15 -5 -27 3 -35 12 -12 -4 -15 -53 -11 -60 5
-100 5 -100 -2 0 -4 -13 -3 -30 2 -17 5 -30 5 -30 0 0 -5 -13 -5 -30 0 -16 5
-30 5 -30 1 0 -5 -18 -5 -40 -1 -22 4 -43 4 -46 -1 -2 -4 -15 -4 -27 0 -13 5
-30 5 -38 1 -8 -5 -21 -5 -29 0 -7 4 -24 4 -36 0 -14 -6 -26 -5 -29 0 -3 5
-18 5 -35 0 -17 -5 -30 -5 -30 0 0 5 -6 7 -13 4 -25 -9 -72 -11 -94 -3 -12 5
-25 4 -28 -1 -3 -5 -18 -5 -35 0 -17 5 -30 5 -30 0 0 -5 -13 -5 -30 0 -17 5
-30 5 -30 0 0 -5 -13 -5 -30 0 -17 5 -30 5 -30 0 0 -5 -13 -5 -30 0 -17 5 -30
5 -30 0 0 -5 -13 -5 -30 0 -17 5 -30 5 -30 0 0 -5 -13 -5 -30 0 -17 5 -30 5
-30 0 0 -5 -13 -5 -30 0 -17 5 -30 5 -30 0 0 -5 -13 -5 -30 0 -19 5 -30 5 -30
-1 0 -6 -5 -7 -10 -4 -14 9 -103 10 -116 2 -5 -3 -16 -2 -24 3 -8 5 -21 5 -30
0 -9 -5 -22 -5 -30 0 -7 4 -24 4 -36 0 -14 -6 -26 -5 -29 0 -3 5 -18 5 -35 0
-17 -5 -30 -5 -30 0 0 5 -13 5 -29 0 -15 -4 -34 -4 -42 0 -7 5 -20 5 -29 0 -9
-5 -22 -5 -30 0 -8 5 -21 5 -30 0 -9 -5 -22 -5 -30 0 -7 4 -23 5 -35 0 -12 -5
-28 -5 -35 0 -7 5 -24 4 -36 0 -14 -6 -26 -5 -29 0 -3 5 -16 6 -28 1 -22 -7
-69 -6 -93 3 -6 2 -14 2 -17 -1 -3 -2 -49 -6 -101 -8 -116 -5 -175 -12 -316
-41 -41 -8 -93 -20 -115 -26 -22 -6 -45 -12 -52 -14 -15 -3 -83 -24 -103 -31
-8 -4 -17 -7 -20 -7 -36 -8 -290 -125 -379 -176 -41 -23 -201 -130 -217 -145
-6 -5 -25 -21 -43 -35 -72 -55 -235 -212 -291 -280 -19 -24 -39 -48 -45 -54
-40 -44 -164 -227 -197 -291 -8 -16 -32 -60 -51 -96 -20 -37 -33 -69 -30 -73
4 -3 1 -6 -5 -6 -7 0 -12 -8 -12 -18 0 -10 -4 -22 -8 -27 -10 -12 -51 -114
-57 -141 -2 -10 -12 -46 -23 -79 -11 -33 -24 -80 -30 -105 -21 -86 -25 -105
-27 -120 -1 -8 -5 -33 -9 -55 -16 -96 -20 -151 -20 -325 0 -169 4 -255 19
-335 3 -16 7 -43 10 -60 7 -41 11 -63 24 -115 7 -25 14 -54 16 -64 6 -26 34
-116 44 -141 5 -11 19 -47 31 -80 25 -65 100 -227 109 -235 3 -3 13 -18 21
-35 8 -16 22 -41 31 -55 9 -14 33 -51 53 -82 20 -31 42 -63 49 -70 6 -7 31
-38 53 -68 39 -52 58 -74 145 -167 80 -85 306 -273 328 -273 6 0 11 -4 11 -8
0 -5 17 -17 37 -28 21 -10 40 -22 43 -26 15 -20 267 -145 365 -181 109 -40
110 -40 115 -42 24 -7 87 -25 92 -25 4 -1 22 -6 40 -11 35 -10 112 -27 163
-35 17 -3 41 -7 55 -10 14 -3 52 -8 85 -12 130 -15 7530 -8 7530 8 0 1 16 3
35 4 77 6 165 18 173 23 4 2 27 6 50 8 23 2 65 8 92 15 28 6 59 14 70 16 25 5
58 12 88 20 20 4 53 12 82 18 6 1 26 7 45 13 19 6 89 28 155 49 66 20 126 41
133 47 7 5 15 7 18 4 3 -3 21 3 40 14 19 10 40 19 47 19 7 0 40 13 75 30 34
16 62 26 62 22 0 -4 4 -2 8 3 4 6 32 22 61 35 93 42 238 119 329 174 48 28 98
59 111 67 14 7 30 17 35 22 6 4 63 44 127 90 117 82 160 114 203 152 13 11 45
38 71 60 123 102 302 279 405 401 23 27 52 60 64 74 12 14 51 63 87 110 35 47
67 87 72 88 4 2 7 10 7 17 0 7 3 15 8 17 4 2 41 55 83 118 92 140 125 196 210
358 27 50 47 92 44 92 -3 0 3 9 12 20 9 10 18 25 19 33 1 8 16 44 33 81 17 37
31 70 31 72 0 3 8 24 19 47 20 45 100 271 106 298 2 9 13 49 26 90 12 41 23
83 25 94 2 11 13 58 24 105 11 47 23 96 25 110 2 14 6 34 8 45 3 11 8 40 12
65 4 25 9 54 11 65 3 11 7 40 9 65 3 25 8 61 10 80 26 180 26 744 0 895 -3 17
-7 53 -9 80 -3 28 -5 50 -6 50 -1 0 -4 14 -6 30 -21 141 -82 415 -121 540 -40
129 -113 329 -153 420 -44 102 -160 331 -211 418 -35 60 -69 117 -75 128 -6
10 -18 27 -27 37 -10 10 -17 22 -17 26 0 15 -184 264 -270 365 -74 88 -120
138 -215 234 -94 95 -143 140 -285 264 -30 26 -148 118 -170 133 -13 8 -35 25
-50 38 -15 12 -31 22 -34 22 -4 0 -12 5 -19 10 -47 40 -63 51 -88 62 -16 7
-29 16 -29 19 0 4 -13 12 -30 19 -16 7 -30 16 -30 20 0 4 -8 10 -17 13 -10 3
-49 24 -88 47 -110 63 -423 216 -465 225 -8 2 -49 18 -90 35 -41 17 -76 31
-77 31 -2 0 -8 1 -15 4 -47 14 -190 57 -223 66 -22 6 -49 15 -60 19 -11 5 -27
8 -35 8 -16 0 -35 5 -88 21 -18 5 -35 10 -37 10 -3 1 -6 1 -7 2 -4 1 -45 7
-78 13 -14 2 -41 6 -60 10 -19 4 -51 9 -70 11 -19 2 -70 9 -112 15 -43 6 -101
13 -130 17 -29 4 -1228 8 -2665 10 -2114 3 -2612 1 -2616 -9z"/>
</g>
</svg>
