<svg width="868" height="678" viewBox="0 0 868 678" fill="none" xmlns="http://www.w3.org/2000/svg">
<g id="Frame 1" clip-path="url(#clip0)">
<rect width="868" height="678" fill="white"/>
<g id="humanfactors">
<path id="Vector" d="M166.296 155.653H155.556V167.234H153V141.653H155.556V152.941H166.296V141.653H168.852V167.234H166.296V155.653ZM183.945 164.156H183.823C183.661 164.596 183.458 165.035 183.214 165.475C182.991 165.89 182.707 166.269 182.362 166.611C182.018 166.929 181.602 167.185 181.115 167.381C180.628 167.576 180.06 167.674 179.411 167.674C177.788 167.674 176.5 167.051 175.547 165.805C174.593 164.534 174.117 162.751 174.117 160.454V148.324H176.551V159.941C176.551 163.337 177.748 165.035 180.141 165.035C180.628 165.035 181.095 164.962 181.541 164.815C182.007 164.669 182.413 164.449 182.758 164.156C183.123 163.863 183.407 163.496 183.61 163.056C183.833 162.592 183.945 162.042 183.945 161.407V148.324H186.379V167.234H183.945V164.156ZM191.562 167.234V148.324H193.996V151.402H194.118C194.301 150.913 194.503 150.461 194.727 150.046C194.97 149.606 195.254 149.228 195.578 148.91C195.923 148.592 196.319 148.348 196.765 148.177C197.211 147.981 197.739 147.884 198.347 147.884C199.382 147.884 200.335 148.189 201.207 148.8C202.08 149.386 202.729 150.364 203.155 151.732H203.216C203.499 150.706 204.027 149.814 204.798 149.057C205.589 148.275 206.654 147.884 207.992 147.884C209.595 147.884 210.842 148.519 211.735 149.789C212.648 151.036 213.104 152.807 213.104 155.104V167.234H210.67V155.617C210.67 153.931 210.396 152.66 209.848 151.805C209.301 150.95 208.429 150.522 207.232 150.522C206.745 150.522 206.278 150.596 205.832 150.742C205.406 150.889 205.021 151.109 204.676 151.402C204.331 151.695 204.057 152.074 203.854 152.538C203.652 152.978 203.55 153.503 203.55 154.114V167.234H201.116V155.617C201.116 153.931 200.842 152.66 200.295 151.805C199.747 150.95 198.895 150.522 197.739 150.522C197.252 150.522 196.785 150.596 196.339 150.742C195.893 150.889 195.497 151.109 195.153 151.402C194.808 151.695 194.524 152.074 194.301 152.538C194.098 152.978 193.996 153.503 193.996 154.114V167.234H191.562ZM229.536 167.234C228.623 167.234 227.964 166.941 227.558 166.355C227.173 165.768 226.93 165.035 226.828 164.156H226.676C226.331 165.329 225.763 166.208 224.972 166.794C224.181 167.381 223.238 167.674 222.142 167.674C220.479 167.674 219.181 167.161 218.248 166.135C217.335 165.109 216.879 163.716 216.879 161.957C216.879 160.173 217.416 158.805 218.491 157.852C219.587 156.899 221.28 156.423 223.573 156.423H226.676V154.554C226.676 153.21 226.372 152.184 225.763 151.475C225.155 150.767 224.222 150.413 222.964 150.413C222.011 150.413 221.209 150.669 220.56 151.182C219.931 151.695 219.404 152.379 218.978 153.234L217.518 151.585C217.944 150.559 218.623 149.692 219.556 148.983C220.489 148.25 221.666 147.884 223.086 147.884C224.992 147.884 226.473 148.446 227.528 149.57C228.583 150.693 229.11 152.257 229.11 154.261V164.669H230.905V167.234H229.536ZM222.538 165.182C223.147 165.182 223.704 165.096 224.211 164.925C224.719 164.754 225.155 164.51 225.52 164.192C225.885 163.875 226.169 163.508 226.372 163.093C226.575 162.678 226.676 162.226 226.676 161.737V158.622H223.451C222.051 158.622 221.027 158.866 220.378 159.355C219.749 159.843 219.435 160.552 219.435 161.48V162.25C219.435 163.178 219.708 163.899 220.256 164.412C220.824 164.925 221.585 165.182 222.538 165.182ZM234.379 167.234V148.324H236.813V151.402H236.935C237.32 150.327 237.858 149.472 238.547 148.837C239.257 148.201 240.201 147.884 241.377 147.884C243 147.884 244.278 148.519 245.211 149.789C246.164 151.036 246.641 152.807 246.641 155.104V167.234H244.207V155.617C244.207 152.221 243.02 150.522 240.647 150.522C240.16 150.522 239.683 150.596 239.217 150.742C238.771 150.889 238.365 151.109 238 151.402C237.635 151.695 237.341 152.074 237.117 152.538C236.915 152.978 236.813 153.503 236.813 154.114V167.234H234.379ZM259.106 167.234V141.653H271.764V144.365H261.662V152.941H270.881V155.653H261.662V167.234H259.106ZM286.051 167.234C285.138 167.234 284.479 166.941 284.073 166.355C283.688 165.768 283.444 165.035 283.343 164.156H283.191C282.846 165.329 282.278 166.208 281.487 166.794C280.696 167.381 279.753 167.674 278.657 167.674C276.994 167.674 275.696 167.161 274.763 166.135C273.85 165.109 273.393 163.716 273.393 161.957C273.393 160.173 273.931 158.805 275.006 157.852C276.101 156.899 277.795 156.423 280.087 156.423H283.191V154.554C283.191 153.21 282.886 152.184 282.278 151.475C281.669 150.767 280.736 150.413 279.479 150.413C278.525 150.413 277.724 150.669 277.075 151.182C276.446 151.695 275.919 152.379 275.493 153.234L274.032 151.585C274.458 150.559 275.138 149.692 276.071 148.983C277.004 148.25 278.18 147.884 279.6 147.884C281.507 147.884 282.988 148.446 284.043 149.57C285.097 150.693 285.625 152.257 285.625 154.261V164.669H287.42V167.234H286.051ZM279.053 165.182C279.661 165.182 280.219 165.096 280.726 164.925C281.233 164.754 281.669 164.51 282.034 164.192C282.4 163.875 282.684 163.508 282.886 163.093C283.089 162.678 283.191 162.226 283.191 161.737V158.622H279.965C278.566 158.622 277.541 158.866 276.892 159.355C276.264 159.843 275.949 160.552 275.949 161.48V162.25C275.949 163.178 276.223 163.899 276.771 164.412C277.339 164.925 278.099 165.182 279.053 165.182ZM296.736 167.674C295.64 167.674 294.656 167.442 293.784 166.978C292.912 166.514 292.172 165.854 291.563 164.999C290.975 164.144 290.518 163.105 290.194 161.884C289.89 160.662 289.737 159.294 289.737 157.779C289.737 156.264 289.89 154.896 290.194 153.674C290.518 152.453 290.975 151.414 291.563 150.559C292.172 149.704 292.912 149.044 293.784 148.58C294.656 148.116 295.64 147.884 296.736 147.884C298.297 147.884 299.545 148.299 300.478 149.13C301.431 149.936 302.141 150.999 302.608 152.318L300.569 153.564C300.285 152.587 299.819 151.83 299.17 151.292C298.521 150.755 297.709 150.486 296.736 150.486C296.005 150.486 295.366 150.632 294.819 150.926C294.271 151.194 293.815 151.585 293.449 152.098C293.084 152.587 292.811 153.186 292.628 153.894C292.445 154.578 292.354 155.336 292.354 156.166V159.391C292.354 161.053 292.719 162.421 293.449 163.496C294.2 164.547 295.295 165.072 296.736 165.072C298.703 165.072 300.123 163.973 300.995 161.774L302.76 163.203C302.253 164.571 301.492 165.658 300.478 166.465C299.484 167.271 298.237 167.674 296.736 167.674ZM309.665 167.234C308.813 167.234 308.164 166.953 307.718 166.391C307.292 165.805 307.079 165.048 307.079 164.119V150.889H304.493V148.324H305.953C306.48 148.324 306.835 148.201 307.018 147.957C307.221 147.688 307.322 147.236 307.322 146.601V143.083H309.513V148.324H312.951V150.889H309.513V164.669H312.708V167.234H309.665ZM322.677 167.674C321.623 167.674 320.659 167.442 319.787 166.978C318.915 166.514 318.164 165.854 317.535 164.999C316.927 164.119 316.45 163.081 316.105 161.884C315.761 160.662 315.588 159.294 315.588 157.779C315.588 156.289 315.761 154.933 316.105 153.711C316.45 152.489 316.927 151.451 317.535 150.596C318.164 149.716 318.915 149.044 319.787 148.58C320.659 148.116 321.623 147.884 322.677 147.884C323.732 147.884 324.686 148.116 325.538 148.58C326.41 149.044 327.16 149.716 327.789 150.596C328.418 151.451 328.905 152.489 329.25 153.711C329.594 154.933 329.767 156.289 329.767 157.779C329.767 159.294 329.594 160.662 329.25 161.884C328.905 163.081 328.418 164.119 327.789 164.999C327.16 165.854 326.41 166.514 325.538 166.978C324.686 167.442 323.732 167.674 322.677 167.674ZM322.677 165.072C323.996 165.072 325.071 164.583 325.903 163.606C326.734 162.629 327.15 161.138 327.15 159.135V156.423C327.15 154.419 326.734 152.929 325.903 151.952C325.071 150.974 323.996 150.486 322.677 150.486C321.359 150.486 320.284 150.974 319.452 151.952C318.621 152.929 318.205 154.419 318.205 156.423V159.135C318.205 161.138 318.621 162.629 319.452 163.606C320.284 164.583 321.359 165.072 322.677 165.072ZM333.77 167.234V148.324H336.205V151.805H336.357C336.641 150.901 337.148 150.095 337.878 149.386C338.608 148.678 339.612 148.324 340.89 148.324H341.834V151.255H340.403C339.085 151.255 338.05 151.561 337.3 152.172C336.57 152.758 336.205 153.503 336.205 154.407V167.234H333.77ZM349.659 167.674C348.199 167.674 346.971 167.344 345.977 166.685C345.004 166 344.162 165.096 343.452 163.973L345.186 162.287C345.795 163.215 346.474 163.936 347.225 164.449C347.975 164.938 348.848 165.182 349.842 165.182C350.876 165.182 351.677 164.913 352.245 164.376C352.834 163.838 353.128 163.081 353.128 162.103C353.128 161.37 352.925 160.747 352.519 160.234C352.134 159.697 351.424 159.33 350.389 159.135L349.142 158.915C348.412 158.793 347.742 158.61 347.134 158.365C346.525 158.097 345.988 157.754 345.521 157.339C345.075 156.899 344.72 156.362 344.456 155.727C344.213 155.091 344.091 154.334 344.091 153.454C344.091 152.526 344.233 151.72 344.517 151.036C344.801 150.327 345.186 149.741 345.673 149.276C346.18 148.812 346.779 148.47 347.468 148.25C348.158 148.006 348.898 147.884 349.689 147.884C350.967 147.884 352.032 148.153 352.884 148.69C353.756 149.228 354.517 149.973 355.166 150.926L353.554 152.685C353.209 152.098 352.702 151.573 352.032 151.109C351.363 150.62 350.521 150.376 349.507 150.376C348.493 150.376 347.722 150.645 347.194 151.182C346.687 151.695 346.434 152.404 346.434 153.308C346.434 154.236 346.687 154.908 347.194 155.323C347.722 155.739 348.472 156.044 349.446 156.24L350.663 156.46C352.408 156.777 353.645 157.388 354.375 158.292C355.105 159.172 355.47 160.332 355.47 161.774C355.47 163.606 354.953 165.048 353.919 166.098C352.884 167.149 351.464 167.674 349.659 167.674Z" fill="#335077"/>
<path id="Vector_2" d="M248.494 64.7895C253.948 64.7895 258.369 59.4641 258.369 52.8947C258.369 46.3255 253.948 41 248.494 41C243.04 41 238.618 46.3255 238.618 52.8947C238.618 59.4641 243.04 64.7895 248.494 64.7895Z" fill="#FCC859"/>
<path id="Vector_3" d="M218.63 123.189C218.63 103.34 232.015 87.2176 248.493 87.2176V99.184C237.488 99.184 228.565 109.932 228.565 123.189H218.63Z" fill="#CD573D"/>
<path id="Vector_4" d="M248.493 99.184V87.2176C264.972 87.2176 278.357 103.34 278.357 123.189H268.423C268.363 109.932 259.439 99.184 248.493 99.184Z" fill="#EB674B"/>
<path id="Vector_5" d="M218.63 51.3183C218.63 71.1667 232.015 87.2892 248.493 87.2892V75.3228C237.488 75.3228 228.565 64.5745 228.565 51.3183H218.63Z" fill="#30A291"/>
<path id="Vector_6" d="M248.493 75.251V87.2175C264.972 87.2175 278.357 71.095 278.357 51.2465H268.423C268.363 64.5744 259.439 75.251 248.493 75.251Z" fill="#25414D"/>
</g>
<g id="research">
<path id="Vector_7" d="M86.5558 381.054H84V355.473H92.4586C94.3247 355.473 95.7751 356.096 96.8096 357.342C97.8643 358.589 98.3917 360.384 98.3917 362.73C98.3917 364.611 98.0266 366.163 97.2964 367.384C96.5864 368.581 95.5316 369.375 94.132 369.766L99.0003 381.054H96.1097L91.5153 370.06H86.5558V381.054ZM92.4586 367.421C93.4728 367.421 94.2537 367.103 94.8014 366.468C95.3694 365.833 95.6533 364.929 95.6533 363.756V361.85C95.6533 360.677 95.3694 359.773 94.8014 359.138C94.2537 358.503 93.4728 358.185 92.4586 358.185H86.5558V367.421H92.4586ZM108.676 381.494C107.601 381.494 106.627 381.262 105.755 380.798C104.903 380.333 104.163 379.674 103.534 378.819C102.925 377.939 102.449 376.901 102.104 375.703C101.779 374.482 101.617 373.114 101.617 371.599C101.617 370.108 101.779 368.752 102.104 367.531C102.449 366.309 102.925 365.271 103.534 364.416C104.163 363.536 104.903 362.864 105.755 362.4C106.627 361.936 107.601 361.704 108.676 361.704C109.731 361.704 110.674 361.936 111.506 362.4C112.337 362.864 113.047 363.512 113.635 364.342C114.224 365.149 114.67 366.114 114.974 367.238C115.299 368.361 115.461 369.595 115.461 370.939V372.332H104.173V373.211C104.173 374.018 104.274 374.775 104.477 375.484C104.7 376.168 105.004 376.766 105.39 377.279C105.796 377.792 106.282 378.196 106.85 378.489C107.439 378.782 108.098 378.928 108.828 378.928C109.822 378.928 110.684 378.648 111.414 378.086C112.165 377.524 112.743 376.717 113.149 375.667L114.883 377.169C114.376 378.464 113.585 379.515 112.51 380.321C111.435 381.103 110.157 381.494 108.676 381.494ZM108.676 364.159C108.006 364.159 107.398 364.306 106.85 364.599C106.303 364.868 105.826 365.259 105.42 365.772C105.035 366.285 104.731 366.896 104.507 367.604C104.284 368.288 104.173 369.046 104.173 369.876V370.133H112.844V369.73C112.844 368.044 112.459 366.7 111.688 365.698C110.938 364.672 109.934 364.159 108.676 364.159ZM124.188 381.494C122.728 381.494 121.5 381.164 120.507 380.504C119.533 379.82 118.691 378.916 117.981 377.792L119.715 376.107C120.324 377.035 121.004 377.756 121.754 378.269C122.505 378.757 123.377 379.002 124.371 379.002C125.405 379.002 126.206 378.733 126.774 378.195C127.363 377.658 127.657 376.901 127.657 375.923C127.657 375.19 127.454 374.567 127.048 374.054C126.663 373.517 125.953 373.15 124.918 372.955L123.671 372.735C122.941 372.613 122.271 372.429 121.663 372.185C121.054 371.916 120.517 371.574 120.05 371.159C119.604 370.719 119.249 370.182 118.985 369.546C118.742 368.911 118.62 368.154 118.62 367.274C118.62 366.346 118.762 365.54 119.046 364.855C119.33 364.147 119.715 363.56 120.202 363.096C120.709 362.632 121.308 362.29 121.997 362.07C122.687 361.826 123.427 361.704 124.219 361.704C125.496 361.704 126.561 361.972 127.413 362.51C128.286 363.047 129.046 363.793 129.695 364.745L128.083 366.505C127.738 365.918 127.231 365.393 126.561 364.929C125.892 364.44 125.05 364.196 124.036 364.196C123.022 364.196 122.251 364.464 121.724 365.002C121.216 365.515 120.963 366.224 120.963 367.128C120.963 368.056 121.216 368.728 121.724 369.143C122.251 369.559 123.002 369.864 123.975 370.06L125.192 370.279C126.937 370.597 128.174 371.208 128.904 372.112C129.634 372.991 130 374.152 130 375.593C130 377.426 129.482 378.867 128.448 379.918C127.413 380.969 125.993 381.494 124.188 381.494ZM140.202 381.494C139.127 381.494 138.153 381.262 137.281 380.798C136.429 380.333 135.689 379.674 135.06 378.819C134.451 377.939 133.974 376.901 133.63 375.703C133.305 374.482 133.143 373.114 133.143 371.599C133.143 370.108 133.305 368.752 133.63 367.531C133.974 366.309 134.451 365.271 135.06 364.416C135.689 363.536 136.429 362.864 137.281 362.4C138.153 361.936 139.127 361.704 140.202 361.704C141.257 361.704 142.2 361.936 143.031 362.4C143.863 362.864 144.573 363.512 145.161 364.342C145.75 365.149 146.196 366.114 146.5 367.238C146.825 368.361 146.987 369.595 146.987 370.939V372.332H135.699V373.211C135.699 374.018 135.8 374.775 136.003 375.484C136.226 376.168 136.53 376.766 136.916 377.279C137.321 377.792 137.808 378.196 138.376 378.489C138.964 378.782 139.624 378.928 140.354 378.928C141.348 378.928 142.21 378.648 142.94 378.086C143.691 377.524 144.269 376.717 144.674 375.667L146.409 377.169C145.902 378.464 145.111 379.515 144.036 380.321C142.96 381.103 141.683 381.494 140.202 381.494ZM140.202 364.159C139.532 364.159 138.924 364.306 138.376 364.599C137.829 364.868 137.352 365.259 136.946 365.772C136.561 366.285 136.256 366.896 136.033 367.604C135.81 368.288 135.699 369.046 135.699 369.876V370.133H144.37V369.73C144.37 368.044 143.985 366.7 143.214 365.698C142.463 364.672 141.459 364.159 140.202 364.159ZM162.408 381.054C161.495 381.054 160.836 380.761 160.43 380.175C160.045 379.588 159.801 378.855 159.7 377.976H159.548C159.203 379.148 158.635 380.028 157.844 380.614C157.053 381.201 156.11 381.494 155.014 381.494C153.351 381.494 152.053 380.981 151.12 379.955C150.207 378.928 149.75 377.536 149.75 375.777C149.75 373.993 150.288 372.625 151.363 371.672C152.458 370.719 154.152 370.243 156.444 370.243H159.548V368.374C159.548 367.03 159.244 366.004 158.635 365.295C158.026 364.587 157.093 364.232 155.836 364.232C154.882 364.232 154.081 364.489 153.432 365.002C152.803 365.515 152.276 366.199 151.85 367.054L150.389 365.405C150.815 364.379 151.495 363.512 152.428 362.803C153.361 362.07 154.538 361.704 155.957 361.704C157.864 361.704 159.345 362.266 160.4 363.389C161.455 364.513 161.982 366.077 161.982 368.081V378.489H163.777V381.054H162.408ZM155.41 379.002C156.018 379.002 156.576 378.916 157.083 378.745C157.59 378.574 158.026 378.33 158.392 378.012C158.757 377.695 159.041 377.328 159.244 376.913C159.446 376.497 159.548 376.045 159.548 375.557V372.442H156.323C154.923 372.442 153.899 372.686 153.25 373.175C152.621 373.663 152.306 374.372 152.306 375.3V376.07C152.306 376.998 152.58 377.719 153.128 378.232C153.696 378.745 154.456 379.002 155.41 379.002ZM167.251 381.054V362.143H169.685V365.625H169.837C170.121 364.721 170.628 363.915 171.359 363.206C172.089 362.498 173.093 362.143 174.371 362.143H175.314V365.075H173.884C172.566 365.075 171.531 365.381 170.781 365.992C170.05 366.578 169.685 367.323 169.685 368.227V381.054H167.251ZM184.117 381.494C183.021 381.494 182.038 381.262 181.165 380.798C180.293 380.333 179.553 379.674 178.944 378.819C178.356 377.963 177.9 376.925 177.575 375.703C177.271 374.482 177.119 373.114 177.119 371.599C177.119 370.084 177.271 368.716 177.575 367.494C177.9 366.272 178.356 365.234 178.944 364.379C179.553 363.524 180.293 362.864 181.165 362.4C182.038 361.936 183.021 361.704 184.117 361.704C185.679 361.704 186.926 362.119 187.859 362.95C188.812 363.756 189.522 364.819 189.989 366.138L187.95 367.384C187.666 366.407 187.2 365.649 186.551 365.112C185.902 364.574 185.09 364.306 184.117 364.306C183.386 364.306 182.747 364.452 182.2 364.745C181.652 365.014 181.196 365.405 180.831 365.918C180.465 366.407 180.192 367.005 180.009 367.714C179.827 368.398 179.735 369.156 179.735 369.986V373.211C179.735 374.873 180.1 376.241 180.831 377.316C181.581 378.367 182.676 378.892 184.117 378.892C186.084 378.892 187.504 377.792 188.376 375.593L190.141 377.023C189.634 378.391 188.873 379.478 187.859 380.284C186.865 381.091 185.618 381.494 184.117 381.494ZM193.578 353.934H196.012V365.222H196.133C196.519 364.147 197.056 363.292 197.746 362.657C198.456 362.021 199.399 361.704 200.576 361.704C202.198 361.704 203.476 362.339 204.409 363.609C205.363 364.855 205.839 366.627 205.839 368.923V381.054H203.405V369.437C203.405 366.04 202.219 364.342 199.845 364.342C199.359 364.342 198.882 364.416 198.415 364.562C197.969 364.709 197.563 364.929 197.198 365.222C196.833 365.515 196.539 365.894 196.316 366.358C196.113 366.798 196.012 367.323 196.012 367.934V381.054H193.578V353.934Z" fill="#335077"/>
<path id="Vector_8" d="M143.714 333.207H124.275V308.775C135.005 308.775 143.714 319.72 143.714 333.207Z" fill="#30A291"/>
<path id="Vector_9" d="M124.275 313.502V303.685C137.371 303.685 147.94 316.869 147.94 333.207H140.07C140.07 322.316 133.005 313.502 124.275 313.502Z" fill="#25414D"/>
<path id="Vector_10" d="M134.417 333.207H154.701V308.775C143.504 308.775 134.417 319.72 134.417 333.207Z" fill="#EB674B"/>
<path id="Vector_11" d="M174.14 333.207H154.701V308.775C165.432 308.775 174.14 319.72 174.14 333.207Z" fill="#EB674B"/>
<path id="Vector_12" d="M103.99 333.207H124.275V308.775C113.077 308.775 103.99 319.72 103.99 333.207Z" fill="#30A291"/>
<path id="Vector_13" d="M99.7643 333.207C99.7643 316.869 110.711 303.685 124.274 303.685V313.502C115.232 313.502 107.915 322.316 107.915 333.207H99.7643Z" fill="#25414D"/>
<path id="Vector_14" d="M153.011 302.667C161.413 302.667 168.224 294.234 168.224 283.833C168.224 273.432 161.413 265 153.011 265C144.609 265 137.797 273.432 137.797 283.833C137.797 294.234 144.609 302.667 153.011 302.667Z" fill="#FCC859"/>
<path id="Vector_15" d="M125.12 333.207C125.12 313.546 138.378 297.577 154.701 297.577V309.429C143.8 309.429 134.96 320.077 134.96 333.207H125.12Z" fill="#CD573D"/>
<path id="Vector_16" d="M154.701 309.429V297.577C170.557 297.577 183.437 313.546 183.437 333.207H173.877C173.877 320.006 165.291 309.429 154.701 309.429Z" fill="#CD573D"/>
<path id="Vector_17" d="M124.274 306.739C131.276 306.739 136.952 299.902 136.952 291.469C136.952 283.035 131.276 276.198 124.274 276.198C117.273 276.198 111.597 283.035 111.597 291.469C111.597 299.902 117.273 306.739 124.274 306.739Z" fill="#FCC859"/>
</g>
<g id="industrial">
<path id="Vector_18" d="M163.519 630.379V627.813H160.538V607.363H163.519V604.798H155V607.363H157.982V627.813H155V630.379H163.519ZM170.377 630.379V617.258C170.377 614.84 172.264 613.667 174.211 613.667C176.554 613.667 177.771 615.389 177.771 618.761V630.379H180.205V618.248C180.205 613.667 178.166 611.028 174.941 611.028C172.598 611.028 171.26 612.421 170.499 614.546H170.377V611.468H167.943V630.379H170.377ZM195.277 630.379H197.711V603.259H195.277V614.546H195.155C194.334 612.164 192.721 611.028 190.561 611.028C186.636 611.028 184.171 614.876 184.171 620.923C184.171 626.97 186.636 630.818 190.561 630.818C192.721 630.818 194.212 629.646 195.155 627.3H195.277V630.379ZM191.23 628.18C188.492 628.18 186.788 625.907 186.788 622.536V619.311C186.788 615.939 188.492 613.667 191.23 613.667C193.451 613.667 195.277 615.206 195.277 617.295V624.331C195.277 626.787 193.451 628.18 191.23 628.18ZM212.562 630.379H214.996V611.468H212.562V624.551C212.562 627.043 210.675 628.18 208.759 628.18C206.416 628.18 205.168 626.457 205.168 623.085V611.468H202.734V623.599C202.734 628.18 204.803 630.818 208.028 630.818C210.645 630.818 211.832 629.096 212.44 627.3H212.562V630.379ZM224.896 630.818C228.486 630.818 230.707 628.583 230.707 624.918C230.707 622.059 229.368 620.227 225.9 619.604L224.683 619.384C222.735 619.017 221.67 618.284 221.67 616.452C221.67 614.656 222.735 613.52 224.743 613.52C226.752 613.52 228.09 614.656 228.79 615.829L230.403 614.07C229.125 612.164 227.451 611.028 224.926 611.028C221.731 611.028 219.328 612.86 219.328 616.599C219.328 620.117 221.488 621.546 224.378 622.059L225.626 622.279C227.695 622.646 228.364 623.782 228.364 625.248C228.364 627.19 227.147 628.326 225.078 628.326C223.1 628.326 221.64 627.263 220.423 625.431L218.689 627.117C220.088 629.352 222.005 630.818 224.896 630.818ZM241.31 630.379V627.813H238.115V614.033H241.553V611.468H238.115V606.227H235.924V609.745C235.924 611.028 235.59 611.468 234.555 611.468H233.095V614.033H235.681V627.263C235.681 629.096 236.594 630.379 238.267 630.379H241.31ZM247.9 630.379V617.552C247.9 615.756 249.482 614.4 252.099 614.4H253.529V611.468H252.585C250.03 611.468 248.599 613.154 248.052 614.949H247.9V611.468H245.466V630.379H247.9ZM257.854 607.033C258.889 607.033 259.345 606.374 259.345 605.384V604.908C259.345 603.918 258.889 603.259 257.854 603.259C256.82 603.259 256.363 603.918 256.363 604.908V605.384C256.363 606.374 256.82 607.033 257.854 607.033ZM256.637 630.379H259.071V611.468H256.637V630.379ZM277.023 630.379V627.813H275.228V617.405C275.228 613.41 272.976 611.028 269.203 611.028C266.374 611.028 264.487 612.714 263.635 614.73L265.096 616.379C265.948 614.656 267.195 613.557 269.082 613.557C271.577 613.557 272.794 615.023 272.794 617.698V619.567H269.69C265.126 619.567 262.996 621.546 262.996 625.101C262.996 628.619 264.944 630.818 268.26 630.818C270.451 630.818 272.124 629.609 272.794 627.3H272.946C273.128 629.059 273.859 630.379 275.654 630.379H277.023ZM268.656 628.326C266.769 628.326 265.552 627.263 265.552 625.394V624.625C265.552 622.792 266.8 621.766 269.568 621.766H272.794V624.881C272.794 626.824 271.059 628.326 268.656 628.326ZM285.244 630.379V627.813H282.932V603.259H280.497V627.337C280.497 629.096 281.41 630.379 283.084 630.379H285.244Z" fill="#335077"/>
<path id="Vector_19" d="M230.181 516.939C232.733 502.598 244.457 493.525 256.363 496.598L255.938 498.866C255.088 503.475 252.233 507.061 248.466 508.305C244.214 509.696 240.751 513.866 239.718 519.427L230.181 516.939Z" fill="#FCC859"/>
<path id="Vector_20" d="M273.19 528.134C270.638 542.475 258.915 551.548 247.008 548.475L249.074 536.988C253.691 538.158 258.246 536.109 261.101 532.012C263.592 528.426 267.48 526.743 271.307 527.695L273.19 528.134Z" fill="#30A291"/>
<path id="Vector_21" d="M175.267 581.401C173.444 578.035 174.295 573.572 177.09 571.377L228.117 531.793L234.616 544.012L183.589 583.595C180.795 585.718 177.09 584.766 175.267 581.401Z" fill="#25414D"/>
<path id="Vector_22" d="M234.596 544.028L228.083 531.849L207.246 548.018L213.76 560.197L234.596 544.028Z" fill="#25414D"/>
<path id="Vector_23" d="M247.008 548.402C235.102 545.329 227.57 531.207 230.12 516.866L239.658 519.353C238.2 527.33 242.453 535.158 249.013 536.841L247.008 548.402Z" fill="#EB674B"/>
<path id="Vector_24" d="M230.485 544.963L225.686 535.963C224.593 533.914 225.079 531.134 226.779 529.817L233.28 524.768L242.148 541.304L235.649 546.353C233.887 547.67 231.578 547.011 230.485 544.963Z" fill="#EB674B"/>
</g>
<g id="interaction">
<path id="Vector_25" d="M527 131V128.435H529.982V107.985H527V105.419H535.519V107.985H532.538V128.435H535.519V131H527ZM539.943 131V112.089H542.377V115.168H542.499C542.884 114.093 543.422 113.238 544.111 112.602C544.821 111.967 545.765 111.65 546.941 111.65C548.564 111.65 549.842 112.285 550.775 113.555C551.728 114.801 552.205 116.573 552.205 118.869V131H549.771V119.382C549.771 115.986 548.584 114.288 546.211 114.288C545.724 114.288 545.247 114.362 544.781 114.508C544.335 114.655 543.929 114.875 543.564 115.168C543.199 115.461 542.905 115.84 542.681 116.304C542.479 116.744 542.377 117.269 542.377 117.88V131H539.943ZM560.705 131C559.853 131 559.204 130.719 558.758 130.157C558.332 129.571 558.119 128.813 558.119 127.885V114.655H555.532V112.089H556.993C557.52 112.089 557.875 111.967 558.058 111.723C558.261 111.454 558.362 111.002 558.362 110.367V106.849H560.553V112.089H563.991V114.655H560.553V128.435H563.748V131H560.705ZM573.688 131.44C572.613 131.44 571.639 131.208 570.767 130.743C569.915 130.279 569.174 129.62 568.546 128.764C567.937 127.885 567.46 126.847 567.116 125.649C566.791 124.428 566.629 123.059 566.629 121.545C566.629 120.054 566.791 118.698 567.116 117.477C567.46 116.255 567.937 115.217 568.546 114.362C569.174 113.482 569.915 112.81 570.767 112.346C571.639 111.882 572.613 111.65 573.688 111.65C574.743 111.65 575.686 111.882 576.517 112.346C577.349 112.81 578.059 113.458 578.647 114.288C579.235 115.095 579.682 116.06 579.986 117.183C580.311 118.307 580.473 119.541 580.473 120.885V122.278H569.185V123.157C569.185 123.963 569.286 124.721 569.489 125.429C569.712 126.114 570.016 126.712 570.402 127.225C570.807 127.738 571.294 128.141 571.862 128.435C572.45 128.728 573.11 128.874 573.84 128.874C574.834 128.874 575.696 128.593 576.426 128.031C577.177 127.47 577.755 126.663 578.16 125.613L579.895 127.115C579.388 128.41 578.597 129.461 577.521 130.267C576.446 131.049 575.168 131.44 573.688 131.44ZM573.688 114.105C573.018 114.105 572.41 114.252 571.862 114.545C571.315 114.814 570.838 115.204 570.432 115.718C570.047 116.231 569.742 116.841 569.519 117.55C569.296 118.234 569.185 118.991 569.185 119.822V120.079H577.856V119.676C577.856 117.99 577.471 116.646 576.7 115.644C575.949 114.618 574.945 114.105 573.688 114.105ZM584.483 131V112.089H586.917V115.571H587.069C587.353 114.667 587.861 113.861 588.591 113.152C589.321 112.444 590.325 112.089 591.603 112.089H592.546V115.021H591.116C589.798 115.021 588.763 115.327 588.013 115.937C587.282 116.524 586.917 117.269 586.917 118.173V131H584.483ZM606.947 131C606.034 131 605.375 130.707 604.97 130.12C604.584 129.534 604.341 128.801 604.239 127.922H604.087C603.742 129.094 603.174 129.974 602.383 130.56C601.592 131.147 600.649 131.44 599.554 131.44C597.89 131.44 596.592 130.927 595.659 129.901C594.746 128.874 594.29 127.482 594.29 125.723C594.29 123.939 594.827 122.571 595.902 121.618C596.998 120.665 598.692 120.189 600.983 120.189H604.087V118.32C604.087 116.976 603.783 115.95 603.174 115.241C602.566 114.533 601.633 114.178 600.375 114.178C599.422 114.178 598.621 114.435 597.971 114.948C597.343 115.461 596.815 116.145 596.389 117L594.929 115.351C595.355 114.325 596.034 113.458 596.967 112.749C597.9 112.016 599.077 111.65 600.497 111.65C602.404 111.65 603.884 112.211 604.939 113.335C605.994 114.459 606.521 116.023 606.521 118.026V128.435H608.316V131H606.947ZM599.949 128.948C600.558 128.948 601.116 128.862 601.623 128.691C602.13 128.52 602.566 128.276 602.931 127.958C603.296 127.641 603.58 127.274 603.783 126.859C603.986 126.443 604.087 125.991 604.087 125.503V122.388H600.862C599.462 122.388 598.438 122.632 597.789 123.121C597.16 123.609 596.846 124.318 596.846 125.246V126.016C596.846 126.944 597.12 127.665 597.667 128.178C598.235 128.691 598.996 128.948 599.949 128.948ZM617.632 131.44C616.537 131.44 615.553 131.208 614.681 130.743C613.808 130.279 613.068 129.62 612.46 128.764C611.871 127.909 611.415 126.871 611.09 125.649C610.786 124.428 610.634 123.059 610.634 121.545C610.634 120.03 610.786 118.662 611.09 117.44C611.415 116.218 611.871 115.18 612.46 114.325C613.068 113.47 613.808 112.81 614.681 112.346C615.553 111.882 616.537 111.65 617.632 111.65C619.194 111.65 620.441 112.065 621.374 112.896C622.328 113.702 623.038 114.765 623.504 116.084L621.466 117.33C621.182 116.353 620.715 115.595 620.066 115.058C619.417 114.52 618.606 114.252 617.632 114.252C616.902 114.252 616.263 114.398 615.715 114.691C615.168 114.96 614.711 115.351 614.346 115.864C613.981 116.353 613.707 116.951 613.524 117.66C613.342 118.344 613.251 119.101 613.251 119.932V123.157C613.251 124.819 613.616 126.187 614.346 127.262C615.097 128.312 616.192 128.838 617.632 128.838C619.6 128.838 621.02 127.738 621.892 125.539L623.656 126.969C623.149 128.337 622.389 129.424 621.374 130.23C620.381 131.037 619.133 131.44 617.632 131.44ZM630.561 131C629.709 131 629.06 130.719 628.613 130.157C628.187 129.571 627.975 128.813 627.975 127.885V114.655H625.388V112.089H626.849C627.376 112.089 627.731 111.967 627.914 111.723C628.116 111.454 628.218 111.002 628.218 110.367V106.849H630.409V112.089H633.847V114.655H630.409V128.435H633.603V131H630.561ZM638.977 107.655C638.45 107.655 638.064 107.508 637.821 107.215C637.598 106.897 637.486 106.494 637.486 106.006V105.529C637.486 105.041 637.598 104.65 637.821 104.356C638.064 104.039 638.45 103.88 638.977 103.88C639.504 103.88 639.88 104.039 640.103 104.356C640.346 104.65 640.468 105.041 640.468 105.529V106.006C640.468 106.494 640.346 106.897 640.103 107.215C639.88 107.508 639.504 107.655 638.977 107.655ZM637.76 112.089H640.194V131H637.76V112.089ZM651.3 131.44C650.245 131.44 649.281 131.208 648.409 130.743C647.537 130.279 646.787 129.62 646.158 128.764C645.549 127.885 645.072 126.847 644.728 125.649C644.383 124.428 644.21 123.059 644.21 121.545C644.21 120.054 644.383 118.698 644.728 117.477C645.072 116.255 645.549 115.217 646.158 114.362C646.787 113.482 647.537 112.81 648.409 112.346C649.281 111.882 650.245 111.65 651.3 111.65C652.355 111.65 653.308 111.882 654.16 112.346C655.032 112.81 655.783 113.482 656.411 114.362C657.04 115.217 657.527 116.255 657.872 117.477C658.217 118.698 658.389 120.054 658.389 121.545C658.389 123.059 658.217 124.428 657.872 125.649C657.527 126.847 657.04 127.885 656.411 128.764C655.783 129.62 655.032 130.279 654.16 130.743C653.308 131.208 652.355 131.44 651.3 131.44ZM651.3 128.838C652.618 128.838 653.693 128.349 654.525 127.372C655.357 126.395 655.773 124.904 655.773 122.901V120.189C655.773 118.185 655.357 116.695 654.525 115.718C653.693 114.74 652.618 114.252 651.3 114.252C649.981 114.252 648.906 114.74 648.075 115.718C647.243 116.695 646.827 118.185 646.827 120.189V122.901C646.827 124.904 647.243 126.395 648.075 127.372C648.906 128.349 649.981 128.838 651.3 128.838ZM662.392 131V112.089H664.826V115.168H664.948C665.333 114.093 665.871 113.238 666.56 112.602C667.27 111.967 668.214 111.65 669.39 111.65C671.013 111.65 672.291 112.285 673.224 113.555C674.177 114.801 674.654 116.573 674.654 118.869V131H672.22V119.382C672.22 115.986 671.033 114.288 668.66 114.288C668.173 114.288 667.696 114.362 667.23 114.508C666.783 114.655 666.378 114.875 666.013 115.168C665.648 115.461 665.353 115.84 665.13 116.304C664.927 116.744 664.826 117.269 664.826 117.88V131H662.392Z" fill="#335077"/>
<path id="Vector_26" d="M620.721 34.6448C624.537 34.6448 627.631 30.9188 627.631 26.3224C627.631 21.7261 624.537 18 620.721 18C616.905 18 613.812 21.7261 613.812 26.3224C613.812 30.9188 616.905 34.6448 620.721 34.6448Z" fill="#30A291"/>
<path id="Vector_27" d="M626.204 59.2154C626.204 75.7281 615.127 89.0703 601.418 89.0703V75.7281C608.985 75.7281 615.237 68.3304 615.237 59.0833H626.204V59.2154Z" fill="#FCC859"/>
<path id="Vector_28" d="M601.418 75.8602V89.2025C587.708 89.2025 576.632 75.8602 576.632 59.3475H587.708C587.599 68.3304 593.74 75.8602 601.418 75.8602Z" fill="#EB674B"/>
<path id="Vector_29" d="M615.237 71.7653V52.0821C615.237 44.6845 620.173 38.7399 626.314 38.7399V58.423C626.204 65.8207 621.269 71.7653 615.237 71.7653Z" fill="#FCC859"/>
<path id="Vector_30" d="M587.599 72.8221V31.3422C587.599 23.9446 582.664 18 576.522 18V59.4799C576.522 66.8776 581.457 72.8221 587.599 72.8221Z" fill="#EB674B"/>
</g>
<g id="visual">
<path id="Vector_31" d="M574.667 650.523L567.609 624.942H570.347L573.846 637.842L576.189 647.444H576.341L578.745 637.842L582.274 624.942H584.921L577.771 650.523H574.667ZM589.345 627.177C588.817 627.177 588.432 627.031 588.189 626.738C587.966 626.42 587.854 626.017 587.854 625.528V625.052C587.854 624.563 587.966 624.172 588.189 623.879C588.432 623.561 588.817 623.402 589.345 623.402C589.872 623.402 590.248 623.561 590.471 623.879C590.714 624.172 590.836 624.563 590.836 625.052V625.528C590.836 626.017 590.714 626.42 590.471 626.738C590.248 627.031 589.872 627.177 589.345 627.177ZM588.128 631.612H590.562V650.523H588.128V631.612ZM600.451 650.962C598.99 650.962 597.763 650.633 596.769 649.973C595.795 649.289 594.953 648.385 594.244 647.261L595.978 645.575C596.586 646.503 597.266 647.224 598.016 647.737C598.767 648.226 599.639 648.47 600.633 648.47C601.668 648.47 602.469 648.201 603.037 647.664C603.625 647.126 603.919 646.369 603.919 645.392C603.919 644.659 603.716 644.036 603.311 643.523C602.925 642.985 602.215 642.619 601.18 642.423L599.933 642.203C599.203 642.081 598.534 641.898 597.925 641.654C597.317 641.385 596.779 641.043 596.313 640.627C595.866 640.188 595.511 639.65 595.248 639.015C595.004 638.38 594.882 637.622 594.882 636.743C594.882 635.814 595.024 635.008 595.308 634.324C595.592 633.615 595.978 633.029 596.465 632.565C596.972 632.1 597.57 631.758 598.26 631.538C598.949 631.294 599.69 631.172 600.481 631.172C601.759 631.172 602.824 631.441 603.676 631.978C604.548 632.516 605.309 633.261 605.958 634.214L604.345 635.973C604 635.387 603.493 634.861 602.824 634.397C602.154 633.908 601.313 633.664 600.298 633.664C599.284 633.664 598.513 633.933 597.986 634.47C597.479 634.983 597.225 635.692 597.225 636.596C597.225 637.524 597.479 638.196 597.986 638.612C598.513 639.027 599.264 639.332 600.238 639.528L601.455 639.748C603.199 640.065 604.436 640.676 605.167 641.58C605.897 642.46 606.262 643.62 606.262 645.062C606.262 646.894 605.745 648.336 604.71 649.386C603.676 650.437 602.256 650.962 600.451 650.962ZM620.236 647.444H620.114C619.952 647.884 619.749 648.324 619.506 648.763C619.283 649.179 618.999 649.557 618.654 649.9C618.309 650.217 617.893 650.474 617.407 650.669C616.92 650.865 616.352 650.962 615.703 650.962C614.08 650.962 612.792 650.339 611.838 649.093C610.885 647.823 610.408 646.039 610.408 643.743V631.612H612.843V643.229C612.843 646.626 614.039 648.324 616.433 648.324C616.92 648.324 617.386 648.25 617.832 648.104C618.299 647.957 618.705 647.737 619.05 647.444C619.415 647.151 619.699 646.784 619.901 646.345C620.125 645.88 620.236 645.331 620.236 644.695V631.612H622.67V650.523H620.236V647.444ZM639.264 650.523C638.351 650.523 637.692 650.229 637.286 649.643C636.901 649.057 636.657 648.324 636.556 647.444H636.404C636.059 648.617 635.491 649.496 634.7 650.083C633.909 650.669 632.965 650.962 631.87 650.962C630.207 650.962 628.909 650.449 627.975 649.423C627.063 648.397 626.606 647.004 626.606 645.245C626.606 643.462 627.144 642.093 628.219 641.14C629.314 640.188 631.008 639.711 633.3 639.711H636.404V637.842C636.404 636.498 636.099 635.472 635.491 634.764C634.882 634.055 633.949 633.701 632.692 633.701C631.738 633.701 630.937 633.957 630.288 634.47C629.659 634.983 629.132 635.668 628.706 636.523L627.245 634.874C627.671 633.847 628.351 632.98 629.284 632.271C630.217 631.539 631.393 631.172 632.813 631.172C634.72 631.172 636.201 631.734 637.256 632.858C638.31 633.982 638.838 635.545 638.838 637.549V647.957H640.633V650.523H639.264ZM632.266 648.47C632.874 648.47 633.432 648.385 633.939 648.214C634.446 648.043 634.882 647.798 635.247 647.481C635.613 647.163 635.897 646.797 636.099 646.381C636.302 645.966 636.404 645.514 636.404 645.025V641.91H633.178C631.779 641.91 630.754 642.154 630.105 642.643C629.476 643.132 629.162 643.84 629.162 644.769V645.538C629.162 646.467 629.436 647.188 629.984 647.701C630.552 648.214 631.312 648.47 632.266 648.47ZM646.694 650.523C645.842 650.523 645.193 650.242 644.746 649.68C644.32 649.093 644.107 648.36 644.107 647.481V623.402H646.542V647.957H648.854V650.523H646.694Z" fill="#335077"/>
<path id="Vector_32" d="M572.65 580.355C575.77 580.355 578.3 577.308 578.3 573.549C578.3 569.791 575.77 566.744 572.65 566.744C569.53 566.744 567 569.791 567 573.549C567 577.308 569.53 580.355 572.65 580.355Z" fill="#FCC859"/>
<path id="Vector_33" d="M641.939 545.968C645.224 545.968 647.886 542.921 647.886 539.163C647.886 535.404 645.224 532.357 641.939 532.357C638.654 532.357 635.991 535.404 635.991 539.163C635.991 542.921 638.654 545.968 641.939 545.968Z" fill="#25414D"/>
<path id="Vector_34" d="M587.222 556.714H607.444V573.907H599.472C592.676 573.907 587.222 567.112 587.222 558.773V556.714Z" fill="#25414D"/>
<path id="Vector_35" d="M607.444 540.238H587.222V556.714H607.444V540.238Z" fill="#EB674B"/>
<path id="Vector_36" d="M607.444 540.238H613.653C621.372 540.238 627.665 547.636 627.665 556.714H607.444V540.238Z" fill="#FCC859"/>
<path id="Vector_37" d="M627.665 556.714H607.444V573.907H627.665V556.714Z" fill="#30A291"/>
<path id="Vector_38" d="M607.444 560.296C609.086 560.296 610.418 558.692 610.418 556.714C610.418 554.736 609.086 553.132 607.444 553.132C605.801 553.132 604.469 554.736 604.469 556.714C604.469 558.692 605.801 560.296 607.444 560.296Z" fill="white"/>
<path id="Vector_39" d="M621.718 521.658V508C636.2 508 647.887 521.757 647.887 538.804H636.284C636.284 529.334 629.763 521.658 621.718 521.658Z" fill="#25414D"/>
<path id="Vector_40" d="M567 521.611H621.718V508H578.476C572.073 508 567 514.06 567 521.611Z" fill="#30A291"/>
<path id="Vector_41" d="M592.574 591.054V604.712C578.422 604.712 567 590.954 567 573.907H578.339C578.339 583.378 584.712 591.054 592.574 591.054Z" fill="#FCC859"/>
<path id="Vector_42" d="M647.887 591.101H592.574V604.712H636.353C642.751 604.712 647.887 598.552 647.887 591.101Z" fill="#EB674B"/>
</g>
<g id="main">
<path id="Vector_43" d="M454.407 522.452C378.328 532.22 310.539 463.236 302.249 368.611L363.21 360.675C367.599 413.787 405.639 451.637 447.58 446.142L454.407 522.452Z" fill="#19A79C"/>
<path id="Vector_44" d="M367.771 472.891C378.943 472.891 388 461.554 388 447.569C388 433.584 378.943 422.247 367.771 422.247C356.599 422.247 347.542 433.584 347.542 447.569C347.542 461.554 356.599 472.891 367.771 472.891Z" fill="#FFFCFC" fill-opacity="0.31"/>
<path id="Vector_45" d="M667.039 320.384L577.792 331.983C523.172 284.365 459.773 250.789 431.974 254.452L425.634 178.141C517.319 165.932 595.837 263.609 667.039 320.384Z" fill="#EB674B"/>
<path id="Vector_46" d="M363.698 360.675L302.736 368.611C294.934 273.377 350.042 188.52 425.634 178.141L431.973 254.452C390.032 260.557 359.308 307.564 363.698 360.675Z" fill="#FCC859"/>
<path id="Vector_47" d="M576.879 331.026C682.707 429.314 778.294 525.159 881.195 519.054L874.368 439.691C808.042 448.239 741.717 382.307 666.125 319.427L576.879 331.026Z" fill="#EB674B"/>
<path id="Vector_48" d="M344.187 323.242C355.359 323.242 364.415 311.905 364.415 297.92C364.415 283.935 355.359 272.598 344.187 272.598C333.015 272.598 323.958 283.935 323.958 297.92C323.958 311.905 333.015 323.242 344.187 323.242Z" fill="#F2D89E"/>
<path id="Vector_49" d="M472.486 242.711C483.658 242.711 492.715 231.374 492.715 217.389C492.715 203.404 483.658 192.067 472.486 192.067C461.314 192.067 452.258 203.404 452.258 217.389C452.258 231.374 461.314 242.711 472.486 242.711Z" fill="#FBAB9B"/>
<path id="Vector_50" d="M451.481 484.602C511.954 476.667 618.758 440.037 656.309 192.183C664.113 141.513 703.127 241.631 726.536 236.747C749.946 231.864 725.561 115.872 846.995 100" stroke="#25414D" stroke-width="12.4959" stroke-miterlimit="10"/>
<path id="Vector_51" d="M780.861 154.147C791.112 154.147 799.422 143.745 799.422 130.913C799.422 118.081 791.112 107.679 780.861 107.679C770.61 107.679 762.3 118.081 762.3 130.913C762.3 143.745 770.61 154.147 780.861 154.147Z" fill="#6F93C8"/>
<path id="Vector 1" d="M868 65.049V140C863.115 138.684 859.032 138.324 843.5 140L836 65.049C861.474 63.4133 864.546 63.9092 868 65.049Z" fill="#19A79C"/>
</g>
</g>
<defs>
<clipPath id="clip0">
<rect width="868" height="678" fill="white"/>
</clipPath>
</defs>
</svg>
