<svg width="868" height="678" viewBox="0 0 868 678" fill="none" xmlns="http://www.w3.org/2000/svg">
<path d="M174.24 657V654.48H170.712V634.392H174.24V631.872H164.16V634.392H167.688V654.48H164.16V657H174.24ZM182.354 657V644.112C182.354 641.736 184.586 640.584 186.89 640.584C189.662 640.584 191.102 642.276 191.102 645.588V657H193.982V645.084C193.982 640.584 191.57 637.992 187.754 637.992C184.982 637.992 183.398 639.36 182.498 641.448H182.354V638.424H179.474V657H182.354ZM211.815 657H214.695V630.36H211.815V641.448H211.671C210.699 639.108 208.791 637.992 206.235 637.992C201.591 637.992 198.675 641.772 198.675 647.712C198.675 653.652 201.591 657.432 206.235 657.432C208.791 657.432 210.555 656.28 211.671 653.976H211.815V657ZM207.027 654.84C203.787 654.84 201.771 652.608 201.771 649.296V646.128C201.771 642.816 203.787 640.584 207.027 640.584C209.655 640.584 211.815 642.096 211.815 644.148V651.06C211.815 653.472 209.655 654.84 207.027 654.84ZM232.266 657H235.146V638.424H232.266V651.276C232.266 653.724 230.034 654.84 227.766 654.84C224.994 654.84 223.518 653.148 223.518 649.836V638.424H220.638V650.34C220.638 654.84 223.086 657.432 226.902 657.432C229.998 657.432 231.402 655.74 232.122 653.976H232.266V657ZM246.859 657.432C251.107 657.432 253.735 655.236 253.735 651.636C253.735 648.828 252.151 647.028 248.047 646.416L246.607 646.2C244.303 645.84 243.043 645.12 243.043 643.32C243.043 641.556 244.303 640.44 246.679 640.44C249.055 640.44 250.639 641.556 251.467 642.708L253.375 640.98C251.863 639.108 249.883 637.992 246.895 637.992C243.115 637.992 240.271 639.792 240.271 643.464C240.271 646.92 242.827 648.324 246.247 648.828L247.723 649.044C250.171 649.404 250.963 650.52 250.963 651.96C250.963 653.868 249.523 654.984 247.075 654.984C244.735 654.984 243.007 653.94 241.567 652.14L239.515 653.796C241.171 655.992 243.439 657.432 246.859 657.432ZM266.28 657V654.48H262.5V640.944H266.568V638.424H262.5V633.276H259.908V636.732C259.908 637.992 259.512 638.424 258.288 638.424H256.56V640.944H259.62V653.94C259.62 655.74 260.7 657 262.68 657H266.28ZM274.077 657V644.4C274.077 642.636 275.949 641.304 279.045 641.304H280.737V638.424H279.621C276.597 638.424 274.905 640.08 274.257 641.844H274.077V638.424H271.197V657H274.077ZM285.855 634.068C287.079 634.068 287.619 633.42 287.619 632.448V631.98C287.619 631.008 287.079 630.36 285.855 630.36C284.631 630.36 284.091 631.008 284.091 631.98V632.448C284.091 633.42 284.631 634.068 285.855 634.068ZM284.415 657H287.295V638.424H284.415V657ZM308.535 657V654.48H306.411V644.256C306.411 640.332 303.747 637.992 299.283 637.992C295.935 637.992 293.703 639.648 292.695 641.628L294.423 643.248C295.431 641.556 296.907 640.476 299.139 640.476C302.091 640.476 303.531 641.916 303.531 644.544V646.38H299.859C294.459 646.38 291.939 648.324 291.939 651.816C291.939 655.272 294.243 657.432 298.167 657.432C300.759 657.432 302.739 656.244 303.531 653.976H303.711C303.927 655.704 304.791 657 306.915 657H308.535ZM298.635 654.984C296.403 654.984 294.963 653.94 294.963 652.104V651.348C294.963 649.548 296.439 648.54 299.715 648.54H303.531V651.6C303.531 653.508 301.479 654.984 298.635 654.984ZM318.262 657V654.48H315.526V630.36H312.646V654.012C312.646 655.74 313.726 657 315.706 657H318.262Z" fill="#335077"/>
<path d="M679.072 665L670.72 639.872H673.96L678.1 652.544L680.872 661.976H681.052L683.896 652.544L688.072 639.872H691.204L682.744 665H679.072ZM696.438 642.068C695.814 642.068 695.358 641.924 695.07 641.636C694.806 641.324 694.674 640.928 694.674 640.448V639.98C694.674 639.5 694.806 639.116 695.07 638.828C695.358 638.516 695.814 638.36 696.438 638.36C697.062 638.36 697.506 638.516 697.77 638.828C698.058 639.116 698.202 639.5 698.202 639.98V640.448C698.202 640.928 698.058 641.324 697.77 641.636C697.506 641.924 697.062 642.068 696.438 642.068ZM694.998 646.424H697.878V665H694.998V646.424ZM709.578 665.432C707.85 665.432 706.398 665.108 705.222 664.46C704.07 663.788 703.074 662.9 702.234 661.796L704.286 660.14C705.006 661.052 705.81 661.76 706.698 662.264C707.586 662.744 708.618 662.984 709.794 662.984C711.018 662.984 711.966 662.72 712.638 662.192C713.334 661.664 713.682 660.92 713.682 659.96C713.682 659.24 713.442 658.628 712.962 658.124C712.506 657.596 711.666 657.236 710.441 657.044L708.966 656.828C708.102 656.708 707.31 656.528 706.59 656.288C705.87 656.024 705.234 655.688 704.682 655.28C704.154 654.848 703.734 654.32 703.422 653.696C703.134 653.072 702.99 652.328 702.99 651.464C702.99 650.552 703.158 649.76 703.494 649.088C703.83 648.392 704.286 647.816 704.862 647.36C705.462 646.904 706.17 646.568 706.986 646.352C707.802 646.112 708.678 645.992 709.614 645.992C711.126 645.992 712.386 646.256 713.394 646.784C714.426 647.312 715.326 648.044 716.094 648.98L714.186 650.708C713.778 650.132 713.178 649.616 712.386 649.16C711.594 648.68 710.598 648.44 709.398 648.44C708.198 648.44 707.286 648.704 706.662 649.232C706.062 649.736 705.762 650.432 705.762 651.32C705.762 652.232 706.062 652.892 706.662 653.3C707.286 653.708 708.174 654.008 709.326 654.2L710.766 654.416C712.83 654.728 714.294 655.328 715.158 656.216C716.022 657.08 716.454 658.22 716.454 659.636C716.454 661.436 715.842 662.852 714.618 663.884C713.394 664.916 711.714 665.432 709.578 665.432ZM732.988 661.976H732.844C732.652 662.408 732.412 662.84 732.124 663.272C731.86 663.68 731.524 664.052 731.116 664.388C730.708 664.7 730.216 664.952 729.64 665.144C729.064 665.336 728.392 665.432 727.624 665.432C725.704 665.432 724.18 664.82 723.052 663.596C721.924 662.348 721.36 660.596 721.36 658.34V646.424H724.24V657.836C724.24 661.172 725.656 662.84 728.488 662.84C729.064 662.84 729.616 662.768 730.144 662.624C730.696 662.48 731.176 662.264 731.584 661.976C732.016 661.688 732.352 661.328 732.592 660.896C732.856 660.44 732.988 659.9 732.988 659.276V646.424H735.868V665H732.988V661.976ZM755.501 665C754.421 665 753.641 664.712 753.161 664.136C752.705 663.56 752.417 662.84 752.297 661.976H752.117C751.709 663.128 751.037 663.992 750.101 664.568C749.165 665.144 748.049 665.432 746.753 665.432C744.785 665.432 743.249 664.928 742.145 663.92C741.065 662.912 740.525 661.544 740.525 659.816C740.525 658.064 741.161 656.72 742.433 655.784C743.729 654.848 745.733 654.38 748.445 654.38H752.117V652.544C752.117 651.224 751.757 650.216 751.037 649.52C750.317 648.824 749.213 648.476 747.725 648.476C746.597 648.476 745.649 648.728 744.881 649.232C744.137 649.736 743.513 650.408 743.009 651.248L741.281 649.628C741.785 648.62 742.589 647.768 743.693 647.072C744.797 646.352 746.189 645.992 747.869 645.992C750.125 645.992 751.877 646.544 753.125 647.648C754.373 648.752 754.997 650.288 754.997 652.256V662.48H757.121V665H755.501ZM747.221 662.984C747.941 662.984 748.601 662.9 749.201 662.732C749.801 662.564 750.317 662.324 750.749 662.012C751.181 661.7 751.517 661.34 751.757 660.932C751.997 660.524 752.117 660.08 752.117 659.6V656.54H748.301C746.645 656.54 745.433 656.78 744.665 657.26C743.921 657.74 743.549 658.436 743.549 659.348V660.104C743.549 661.016 743.873 661.724 744.521 662.228C745.193 662.732 746.093 662.984 747.221 662.984ZM764.292 665C763.284 665 762.516 664.724 761.988 664.172C761.484 663.596 761.232 662.876 761.232 662.012V638.36H764.112V662.48H766.848V665H764.292Z" fill="#335077"/>
<path d="M6.372 394H3.348V368.872H13.356C15.564 368.872 17.28 369.484 18.504 370.708C19.752 371.932 20.376 373.696 20.376 376C20.376 377.848 19.944 379.372 19.08 380.572C18.24 381.748 16.992 382.528 15.336 382.912L21.096 394H17.676L12.24 383.2H6.372V394ZM13.356 380.608C14.556 380.608 15.48 380.296 16.128 379.672C16.8 379.048 17.136 378.16 17.136 377.008V375.136C17.136 373.984 16.8 373.096 16.128 372.472C15.48 371.848 14.556 371.536 13.356 371.536H6.372V380.608H13.356ZM32.544 394.432C31.272 394.432 30.12 394.204 29.088 393.748C28.08 393.292 27.204 392.644 26.46 391.804C25.74 390.94 25.176 389.92 24.768 388.744C24.384 387.544 24.192 386.2 24.192 384.712C24.192 383.248 24.384 381.916 24.768 380.716C25.176 379.516 25.74 378.496 26.46 377.656C27.204 376.792 28.08 376.132 29.088 375.676C30.12 375.22 31.272 374.992 32.544 374.992C33.792 374.992 34.908 375.22 35.892 375.676C36.876 376.132 37.716 376.768 38.412 377.584C39.108 378.376 39.636 379.324 39.996 380.428C40.38 381.532 40.572 382.744 40.572 384.064V385.432H27.216V386.296C27.216 387.088 27.336 387.832 27.576 388.528C27.84 389.2 28.2 389.788 28.656 390.292C29.136 390.796 29.712 391.192 30.384 391.48C31.08 391.768 31.86 391.912 32.724 391.912C33.9 391.912 34.92 391.636 35.784 391.084C36.672 390.532 37.356 389.74 37.836 388.708L39.888 390.184C39.288 391.456 38.352 392.488 37.08 393.28C35.808 394.048 34.296 394.432 32.544 394.432ZM32.544 377.404C31.752 377.404 31.032 377.548 30.384 377.836C29.736 378.1 29.172 378.484 28.692 378.988C28.236 379.492 27.876 380.092 27.612 380.788C27.348 381.46 27.216 382.204 27.216 383.02V383.272H37.476V382.876C37.476 381.22 37.02 379.9 36.108 378.916C35.22 377.908 34.032 377.404 32.544 377.404ZM50.8978 394.432C49.1698 394.432 47.7178 394.108 46.5418 393.46C45.3898 392.788 44.3938 391.9 43.5538 390.796L45.6058 389.14C46.3258 390.052 47.1298 390.76 48.0178 391.264C48.9058 391.744 49.9378 391.984 51.1138 391.984C52.3378 391.984 53.2858 391.72 53.9578 391.192C54.6538 390.664 55.0018 389.92 55.0018 388.96C55.0018 388.24 54.7618 387.628 54.2818 387.124C53.8258 386.596 52.9858 386.236 51.7618 386.044L50.2858 385.828C49.4218 385.708 48.6298 385.528 47.9098 385.288C47.1898 385.024 46.5538 384.688 46.0018 384.28C45.4738 383.848 45.0538 383.32 44.7418 382.696C44.4538 382.072 44.3098 381.328 44.3098 380.464C44.3098 379.552 44.4778 378.76 44.8138 378.088C45.1498 377.392 45.6058 376.816 46.1818 376.36C46.7818 375.904 47.4898 375.568 48.3058 375.352C49.1218 375.112 49.9978 374.992 50.9338 374.992C52.4458 374.992 53.7058 375.256 54.7138 375.784C55.7458 376.312 56.6458 377.044 57.4138 377.98L55.5058 379.708C55.0978 379.132 54.4978 378.616 53.7058 378.16C52.9138 377.68 51.9178 377.44 50.7178 377.44C49.5178 377.44 48.6058 377.704 47.9818 378.232C47.3818 378.736 47.0818 379.432 47.0818 380.32C47.0818 381.232 47.3818 381.892 47.9818 382.3C48.6058 382.708 49.4938 383.008 50.6458 383.2L52.0858 383.416C54.1498 383.728 55.6138 384.328 56.4778 385.216C57.3418 386.08 57.7738 387.22 57.7738 388.636C57.7738 390.436 57.1618 391.852 55.9378 392.884C54.7138 393.916 53.0338 394.432 50.8978 394.432ZM69.8448 394.432C68.5728 394.432 67.4208 394.204 66.3888 393.748C65.3808 393.292 64.5048 392.644 63.7608 391.804C63.0408 390.94 62.4768 389.92 62.0688 388.744C61.6848 387.544 61.4928 386.2 61.4928 384.712C61.4928 383.248 61.6848 381.916 62.0688 380.716C62.4768 379.516 63.0408 378.496 63.7608 377.656C64.5048 376.792 65.3808 376.132 66.3888 375.676C67.4208 375.22 68.5728 374.992 69.8448 374.992C71.0928 374.992 72.2088 375.22 73.1928 375.676C74.1768 376.132 75.0168 376.768 75.7128 377.584C76.4088 378.376 76.9368 379.324 77.2968 380.428C77.6808 381.532 77.8728 382.744 77.8728 384.064V385.432H64.5168V386.296C64.5168 387.088 64.6368 387.832 64.8768 388.528C65.1408 389.2 65.5008 389.788 65.9568 390.292C66.4368 390.796 67.0128 391.192 67.6848 391.48C68.3808 391.768 69.1608 391.912 70.0248 391.912C71.2008 391.912 72.2208 391.636 73.0848 391.084C73.9728 390.532 74.6568 389.74 75.1368 388.708L77.1888 390.184C76.5888 391.456 75.6528 392.488 74.3808 393.28C73.1088 394.048 71.5968 394.432 69.8448 394.432ZM69.8448 377.404C69.0528 377.404 68.3328 377.548 67.6848 377.836C67.0368 378.1 66.4728 378.484 65.9928 378.988C65.5368 379.492 65.1768 380.092 64.9128 380.788C64.6488 381.46 64.5168 382.204 64.5168 383.02V383.272H74.7768V382.876C74.7768 381.22 74.3208 379.9 73.4088 378.916C72.5208 377.908 71.3328 377.404 69.8448 377.404ZM96.1186 394C95.0386 394 94.2586 393.712 93.7786 393.136C93.3226 392.56 93.0346 391.84 92.9146 390.976H92.7346C92.3266 392.128 91.6546 392.992 90.7186 393.568C89.7826 394.144 88.6666 394.432 87.3706 394.432C85.4026 394.432 83.8666 393.928 82.7626 392.92C81.6826 391.912 81.1426 390.544 81.1426 388.816C81.1426 387.064 81.7786 385.72 83.0506 384.784C84.3466 383.848 86.3506 383.38 89.0626 383.38H92.7346V381.544C92.7346 380.224 92.3746 379.216 91.6546 378.52C90.9346 377.824 89.8306 377.476 88.3426 377.476C87.2146 377.476 86.2666 377.728 85.4986 378.232C84.7546 378.736 84.1306 379.408 83.6266 380.248L81.8986 378.628C82.4026 377.62 83.2066 376.768 84.3106 376.072C85.4146 375.352 86.8066 374.992 88.4866 374.992C90.7426 374.992 92.4946 375.544 93.7426 376.648C94.9906 377.752 95.6146 379.288 95.6146 381.256V391.48H97.7386V394H96.1186ZM87.8386 391.984C88.5586 391.984 89.2186 391.9 89.8186 391.732C90.4186 391.564 90.9346 391.324 91.3666 391.012C91.7986 390.7 92.1346 390.34 92.3746 389.932C92.6146 389.524 92.7346 389.08 92.7346 388.6V385.54H88.9186C87.2626 385.54 86.0506 385.78 85.2826 386.26C84.5386 386.74 84.1666 387.436 84.1666 388.348V389.104C84.1666 390.016 84.4906 390.724 85.1386 391.228C85.8106 391.732 86.7106 391.984 87.8386 391.984ZM101.849 394V375.424H104.729V378.844H104.909C105.245 377.956 105.845 377.164 106.709 376.468C107.573 375.772 108.761 375.424 110.273 375.424H111.389V378.304H109.697C108.137 378.304 106.913 378.604 106.025 379.204C105.161 379.78 104.729 380.512 104.729 381.4V394H101.849ZM121.804 394.432C120.508 394.432 119.344 394.204 118.312 393.748C117.28 393.292 116.404 392.644 115.684 391.804C114.988 390.964 114.448 389.944 114.064 388.744C113.704 387.544 113.524 386.2 113.524 384.712C113.524 383.224 113.704 381.88 114.064 380.68C114.448 379.48 114.988 378.46 115.684 377.62C116.404 376.78 117.28 376.132 118.312 375.676C119.344 375.22 120.508 374.992 121.804 374.992C123.652 374.992 125.128 375.4 126.232 376.216C127.36 377.008 128.2 378.052 128.752 379.348L126.34 380.572C126.004 379.612 125.452 378.868 124.684 378.34C123.916 377.812 122.956 377.548 121.804 377.548C120.94 377.548 120.184 377.692 119.536 377.98C118.888 378.244 118.348 378.628 117.916 379.132C117.484 379.612 117.16 380.2 116.944 380.896C116.728 381.568 116.62 382.312 116.62 383.128V386.296C116.62 387.928 117.052 389.272 117.916 390.328C118.804 391.36 120.1 391.876 121.804 391.876C124.132 391.876 125.812 390.796 126.844 388.636L128.932 390.04C128.332 391.384 127.432 392.452 126.232 393.244C125.056 394.036 123.58 394.432 121.804 394.432ZM132.998 367.36H135.878V378.448H136.022C136.478 377.392 137.114 376.552 137.93 375.928C138.77 375.304 139.886 374.992 141.278 374.992C143.198 374.992 144.71 375.616 145.814 376.864C146.942 378.088 147.506 379.828 147.506 382.084V394H144.626V382.588C144.626 379.252 143.222 377.584 140.414 377.584C139.838 377.584 139.274 377.656 138.722 377.8C138.194 377.944 137.714 378.16 137.282 378.448C136.85 378.736 136.502 379.108 136.238 379.564C135.998 379.996 135.878 380.512 135.878 381.112V394H132.998V367.36Z" fill="#335077"/>
<path d="M137.08 149.624H124.372V161H121.348V135.872H124.372V146.96H137.08V135.872H140.104V161H137.08V149.624ZM157.961 157.976H157.817C157.625 158.408 157.385 158.84 157.097 159.272C156.833 159.68 156.497 160.052 156.089 160.388C155.681 160.7 155.189 160.952 154.613 161.144C154.037 161.336 153.365 161.432 152.597 161.432C150.677 161.432 149.153 160.82 148.025 159.596C146.897 158.348 146.333 156.596 146.333 154.34V142.424H149.213V153.836C149.213 157.172 150.629 158.84 153.461 158.84C154.037 158.84 154.589 158.768 155.117 158.624C155.669 158.48 156.149 158.264 156.557 157.976C156.989 157.688 157.325 157.328 157.565 156.896C157.829 156.44 157.961 155.9 157.961 155.276V142.424H160.841V161H157.961V157.976ZM166.974 161V142.424H169.854V145.448H169.998C170.214 144.968 170.454 144.524 170.718 144.116C171.006 143.684 171.342 143.312 171.726 143C172.134 142.688 172.602 142.448 173.13 142.28C173.658 142.088 174.282 141.992 175.002 141.992C176.226 141.992 177.354 142.292 178.386 142.892C179.418 143.468 180.186 144.428 180.69 145.772H180.762C181.098 144.764 181.722 143.888 182.634 143.144C183.57 142.376 184.83 141.992 186.414 141.992C188.31 141.992 189.786 142.616 190.842 143.864C191.922 145.088 192.462 146.828 192.462 149.084V161H189.582V149.588C189.582 147.932 189.258 146.684 188.61 145.844C187.962 145.004 186.93 144.584 185.514 144.584C184.938 144.584 184.386 144.656 183.858 144.8C183.354 144.944 182.898 145.16 182.49 145.448C182.082 145.736 181.758 146.108 181.518 146.564C181.278 146.996 181.158 147.512 181.158 148.112V161H178.278V149.588C178.278 147.932 177.954 146.684 177.306 145.844C176.658 145.004 175.65 144.584 174.282 144.584C173.706 144.584 173.154 144.656 172.626 144.8C172.098 144.944 171.63 145.16 171.222 145.448C170.814 145.736 170.478 146.108 170.214 146.564C169.974 146.996 169.854 147.512 169.854 148.112V161H166.974ZM211.904 161C210.824 161 210.044 160.712 209.564 160.136C209.108 159.56 208.82 158.84 208.7 157.976H208.52C208.112 159.128 207.44 159.992 206.504 160.568C205.568 161.144 204.452 161.432 203.156 161.432C201.188 161.432 199.652 160.928 198.548 159.92C197.468 158.912 196.928 157.544 196.928 155.816C196.928 154.064 197.564 152.72 198.836 151.784C200.132 150.848 202.136 150.38 204.848 150.38H208.52V148.544C208.52 147.224 208.16 146.216 207.44 145.52C206.72 144.824 205.616 144.476 204.128 144.476C203 144.476 202.052 144.728 201.284 145.232C200.54 145.736 199.916 146.408 199.412 147.248L197.684 145.628C198.188 144.62 198.992 143.768 200.096 143.072C201.2 142.352 202.592 141.992 204.272 141.992C206.528 141.992 208.28 142.544 209.528 143.648C210.776 144.752 211.4 146.288 211.4 148.256V158.48H213.524V161H211.904ZM203.624 158.984C204.344 158.984 205.004 158.9 205.604 158.732C206.204 158.564 206.72 158.324 207.152 158.012C207.584 157.7 207.92 157.34 208.16 156.932C208.4 156.524 208.52 156.08 208.52 155.6V152.54H204.704C203.048 152.54 201.836 152.78 201.068 153.26C200.324 153.74 199.952 154.436 199.952 155.348V156.104C199.952 157.016 200.276 157.724 200.924 158.228C201.596 158.732 202.496 158.984 203.624 158.984ZM217.634 161V142.424H220.514V145.448H220.658C221.114 144.392 221.75 143.552 222.566 142.928C223.406 142.304 224.522 141.992 225.914 141.992C227.834 141.992 229.346 142.616 230.45 143.864C231.578 145.088 232.142 146.828 232.142 149.084V161H229.262V149.588C229.262 146.252 227.858 144.584 225.05 144.584C224.474 144.584 223.91 144.656 223.358 144.8C222.83 144.944 222.35 145.16 221.918 145.448C221.486 145.736 221.138 146.108 220.874 146.564C220.634 146.996 220.514 147.512 220.514 148.112V161H217.634ZM246.891 161V135.872H261.867V138.536H249.915V146.96H260.823V149.624H249.915V161H246.891ZM278.771 161C277.691 161 276.911 160.712 276.431 160.136C275.975 159.56 275.687 158.84 275.567 157.976H275.387C274.979 159.128 274.307 159.992 273.371 160.568C272.435 161.144 271.319 161.432 270.023 161.432C268.055 161.432 266.519 160.928 265.415 159.92C264.335 158.912 263.795 157.544 263.795 155.816C263.795 154.064 264.431 152.72 265.703 151.784C266.999 150.848 269.003 150.38 271.715 150.38H275.387V148.544C275.387 147.224 275.027 146.216 274.307 145.52C273.587 144.824 272.483 144.476 270.995 144.476C269.867 144.476 268.919 144.728 268.151 145.232C267.407 145.736 266.783 146.408 266.279 147.248L264.551 145.628C265.055 144.62 265.859 143.768 266.963 143.072C268.067 142.352 269.459 141.992 271.139 141.992C273.395 141.992 275.147 142.544 276.395 143.648C277.643 144.752 278.267 146.288 278.267 148.256V158.48H280.391V161H278.771ZM270.491 158.984C271.211 158.984 271.871 158.9 272.471 158.732C273.071 158.564 273.587 158.324 274.019 158.012C274.451 157.7 274.787 157.34 275.027 156.932C275.267 156.524 275.387 156.08 275.387 155.6V152.54H271.571C269.915 152.54 268.703 152.78 267.935 153.26C267.191 153.74 266.819 154.436 266.819 155.348V156.104C266.819 157.016 267.143 157.724 267.791 158.228C268.463 158.732 269.363 158.984 270.491 158.984ZM291.413 161.432C290.117 161.432 288.953 161.204 287.921 160.748C286.889 160.292 286.013 159.644 285.293 158.804C284.597 157.964 284.057 156.944 283.673 155.744C283.313 154.544 283.133 153.2 283.133 151.712C283.133 150.224 283.313 148.88 283.673 147.68C284.057 146.48 284.597 145.46 285.293 144.62C286.013 143.78 286.889 143.132 287.921 142.676C288.953 142.22 290.117 141.992 291.413 141.992C293.261 141.992 294.737 142.4 295.841 143.216C296.969 144.008 297.809 145.052 298.361 146.348L295.949 147.572C295.613 146.612 295.061 145.868 294.293 145.34C293.525 144.812 292.565 144.548 291.413 144.548C290.549 144.548 289.793 144.692 289.145 144.98C288.497 145.244 287.957 145.628 287.525 146.132C287.093 146.612 286.769 147.2 286.553 147.896C286.337 148.568 286.229 149.312 286.229 150.128V153.296C286.229 154.928 286.661 156.272 287.525 157.328C288.413 158.36 289.709 158.876 291.413 158.876C293.741 158.876 295.421 157.796 296.453 155.636L298.541 157.04C297.941 158.384 297.041 159.452 295.841 160.244C294.665 161.036 293.189 161.432 291.413 161.432ZM306.711 161C305.703 161 304.935 160.724 304.407 160.172C303.903 159.596 303.651 158.852 303.651 157.94V144.944H300.591V142.424H302.319C302.943 142.424 303.363 142.304 303.579 142.064C303.819 141.8 303.939 141.356 303.939 140.732V137.276H306.531V142.424H310.599V144.944H306.531V158.48H310.311V161H306.711ZM322.107 161.432C320.859 161.432 319.719 161.204 318.687 160.748C317.655 160.292 316.767 159.644 316.023 158.804C315.303 157.94 314.739 156.92 314.331 155.744C313.923 154.544 313.719 153.2 313.719 151.712C313.719 150.248 313.923 148.916 314.331 147.716C314.739 146.516 315.303 145.496 316.023 144.656C316.767 143.792 317.655 143.132 318.687 142.676C319.719 142.22 320.859 141.992 322.107 141.992C323.355 141.992 324.483 142.22 325.491 142.676C326.523 143.132 327.411 143.792 328.155 144.656C328.899 145.496 329.475 146.516 329.883 147.716C330.291 148.916 330.495 150.248 330.495 151.712C330.495 153.2 330.291 154.544 329.883 155.744C329.475 156.92 328.899 157.94 328.155 158.804C327.411 159.644 326.523 160.292 325.491 160.748C324.483 161.204 323.355 161.432 322.107 161.432ZM322.107 158.876C323.667 158.876 324.939 158.396 325.923 157.436C326.907 156.476 327.399 155.012 327.399 153.044V150.38C327.399 148.412 326.907 146.948 325.923 145.988C324.939 145.028 323.667 144.548 322.107 144.548C320.547 144.548 319.275 145.028 318.291 145.988C317.307 146.948 316.815 148.412 316.815 150.38V153.044C316.815 155.012 317.307 156.476 318.291 157.436C319.275 158.396 320.547 158.876 322.107 158.876ZM335.232 161V142.424H338.112V145.844H338.292C338.628 144.956 339.228 144.164 340.092 143.468C340.956 142.772 342.144 142.424 343.656 142.424H344.772V145.304H343.08C341.52 145.304 340.296 145.604 339.408 146.204C338.544 146.78 338.112 147.512 338.112 148.4V161H335.232ZM354.031 161.432C352.303 161.432 350.851 161.108 349.675 160.46C348.523 159.788 347.527 158.9 346.687 157.796L348.739 156.14C349.459 157.052 350.263 157.76 351.151 158.264C352.039 158.744 353.071 158.984 354.247 158.984C355.471 158.984 356.419 158.72 357.091 158.192C357.787 157.664 358.135 156.92 358.135 155.96C358.135 155.24 357.895 154.628 357.415 154.124C356.959 153.596 356.119 153.236 354.895 153.044L353.419 152.828C352.555 152.708 351.763 152.528 351.043 152.288C350.323 152.024 349.687 151.688 349.135 151.28C348.607 150.848 348.187 150.32 347.875 149.696C347.587 149.072 347.443 148.328 347.443 147.464C347.443 146.552 347.611 145.76 347.947 145.088C348.283 144.392 348.739 143.816 349.315 143.36C349.915 142.904 350.623 142.568 351.439 142.352C352.255 142.112 353.131 141.992 354.067 141.992C355.579 141.992 356.839 142.256 357.847 142.784C358.879 143.312 359.779 144.044 360.547 144.98L358.639 146.708C358.231 146.132 357.631 145.616 356.839 145.16C356.047 144.68 355.051 144.44 353.851 144.44C352.651 144.44 351.739 144.704 351.115 145.232C350.515 145.736 350.215 146.432 350.215 147.32C350.215 148.232 350.515 148.892 351.115 149.3C351.739 149.708 352.627 150.008 353.779 150.2L355.219 150.416C357.283 150.728 358.747 151.328 359.611 152.216C360.475 153.08 360.907 154.22 360.907 155.636C360.907 157.436 360.295 158.852 359.071 159.884C357.847 160.916 356.167 161.432 354.031 161.432Z" fill="#335077"/>
<path d="M534.406 111V108.48H537.934V88.392H534.406V85.872H544.486V88.392H540.958V108.48H544.486V111H534.406ZM549.72 111V92.424H552.6V95.448H552.744C553.2 94.392 553.836 93.552 554.652 92.928C555.492 92.304 556.608 91.992 558 91.992C559.92 91.992 561.432 92.616 562.536 93.864C563.664 95.088 564.228 96.828 564.228 99.084V111H561.348V99.588C561.348 96.252 559.944 94.584 557.136 94.584C556.56 94.584 555.996 94.656 555.444 94.8C554.916 94.944 554.436 95.16 554.004 95.448C553.572 95.736 553.224 96.108 552.96 96.564C552.72 96.996 552.6 97.512 552.6 98.112V111H549.72ZM574.285 111C573.277 111 572.509 110.724 571.981 110.172C571.477 109.596 571.225 108.852 571.225 107.94V94.944H568.165V92.424H569.893C570.517 92.424 570.937 92.304 571.153 92.064C571.393 91.8 571.513 91.356 571.513 90.732V87.276H574.105V92.424H578.173V94.944H574.105V108.48H577.885V111H574.285ZM589.646 111.432C588.374 111.432 587.222 111.204 586.19 110.748C585.182 110.292 584.306 109.644 583.562 108.804C582.842 107.94 582.278 106.92 581.87 105.744C581.486 104.544 581.294 103.2 581.294 101.712C581.294 100.248 581.486 98.916 581.87 97.716C582.278 96.516 582.842 95.496 583.562 94.656C584.306 93.792 585.182 93.132 586.19 92.676C587.222 92.22 588.374 91.992 589.646 91.992C590.894 91.992 592.01 92.22 592.994 92.676C593.978 93.132 594.818 93.768 595.514 94.584C596.21 95.376 596.738 96.324 597.098 97.428C597.482 98.532 597.674 99.744 597.674 101.064V102.432H584.318V103.296C584.318 104.088 584.438 104.832 584.678 105.528C584.942 106.2 585.302 106.788 585.758 107.292C586.238 107.796 586.814 108.192 587.486 108.48C588.182 108.768 588.962 108.912 589.826 108.912C591.002 108.912 592.022 108.636 592.886 108.084C593.774 107.532 594.458 106.74 594.938 105.708L596.99 107.184C596.39 108.456 595.454 109.488 594.182 110.28C592.91 111.048 591.398 111.432 589.646 111.432ZM589.646 94.404C588.854 94.404 588.134 94.548 587.486 94.836C586.838 95.1 586.274 95.484 585.794 95.988C585.338 96.492 584.978 97.092 584.714 97.788C584.45 98.46 584.318 99.204 584.318 100.02V100.272H594.578V99.876C594.578 98.22 594.122 96.9 593.21 95.916C592.322 94.908 591.134 94.404 589.646 94.404ZM602.419 111V92.424H605.299V95.844H605.479C605.815 94.956 606.415 94.164 607.279 93.468C608.143 92.772 609.331 92.424 610.843 92.424H611.959V95.304H610.267C608.707 95.304 607.483 95.604 606.595 96.204C605.731 96.78 605.299 97.512 605.299 98.4V111H602.419ZM628.998 111C627.918 111 627.138 110.712 626.658 110.136C626.202 109.56 625.914 108.84 625.794 107.976H625.614C625.206 109.128 624.534 109.992 623.598 110.568C622.662 111.144 621.546 111.432 620.25 111.432C618.282 111.432 616.746 110.928 615.642 109.92C614.562 108.912 614.022 107.544 614.022 105.816C614.022 104.064 614.658 102.72 615.93 101.784C617.226 100.848 619.23 100.38 621.941 100.38H625.614V98.544C625.614 97.224 625.254 96.216 624.534 95.52C623.814 94.824 622.71 94.476 621.222 94.476C620.094 94.476 619.146 94.728 618.378 95.232C617.634 95.736 617.01 96.408 616.506 97.248L614.778 95.628C615.282 94.62 616.086 93.768 617.189 93.072C618.294 92.352 619.686 91.992 621.366 91.992C623.622 91.992 625.374 92.544 626.622 93.648C627.87 94.752 628.494 96.288 628.494 98.256V108.48H630.617V111H628.998ZM620.718 108.984C621.438 108.984 622.098 108.9 622.698 108.732C623.298 108.564 623.814 108.324 624.246 108.012C624.678 107.7 625.014 107.34 625.254 106.932C625.494 106.524 625.614 106.08 625.614 105.6V102.54H621.798C620.142 102.54 618.93 102.78 618.162 103.26C617.418 103.74 617.046 104.436 617.046 105.348V106.104C617.046 107.016 617.37 107.724 618.018 108.228C618.69 108.732 619.59 108.984 620.718 108.984ZM641.64 111.432C640.344 111.432 639.18 111.204 638.148 110.748C637.116 110.292 636.24 109.644 635.52 108.804C634.824 107.964 634.284 106.944 633.9 105.744C633.54 104.544 633.36 103.2 633.36 101.712C633.36 100.224 633.54 98.88 633.9 97.68C634.284 96.48 634.824 95.46 635.52 94.62C636.24 93.78 637.116 93.132 638.148 92.676C639.18 92.22 640.344 91.992 641.64 91.992C643.488 91.992 644.964 92.4 646.068 93.216C647.196 94.008 648.036 95.052 648.588 96.348L646.176 97.572C645.84 96.612 645.288 95.868 644.52 95.34C643.752 94.812 642.792 94.548 641.64 94.548C640.776 94.548 640.02 94.692 639.372 94.98C638.724 95.244 638.184 95.628 637.752 96.132C637.32 96.612 636.996 97.2 636.78 97.896C636.564 98.568 636.456 99.312 636.456 100.128V103.296C636.456 104.928 636.888 106.272 637.752 107.328C638.64 108.36 639.936 108.876 641.64 108.876C643.968 108.876 645.648 107.796 646.68 105.636L648.768 107.04C648.168 108.384 647.268 109.452 646.068 110.244C644.892 111.036 643.416 111.432 641.64 111.432ZM656.937 111C655.929 111 655.161 110.724 654.633 110.172C654.129 109.596 653.877 108.852 653.877 107.94V94.944H650.817V92.424H652.545C653.169 92.424 653.589 92.304 653.805 92.064C654.045 91.8 654.165 91.356 654.165 90.732V87.276H656.757V92.424H660.825V94.944H656.757V108.48H660.537V111H656.937ZM666.895 88.068C666.271 88.068 665.815 87.924 665.527 87.636C665.263 87.324 665.131 86.928 665.131 86.448V85.98C665.131 85.5 665.263 85.116 665.527 84.828C665.815 84.516 666.271 84.36 666.895 84.36C667.519 84.36 667.963 84.516 668.227 84.828C668.515 85.116 668.659 85.5 668.659 85.98V86.448C668.659 86.928 668.515 87.324 668.227 87.636C667.963 87.924 667.519 88.068 666.895 88.068ZM665.455 92.424H668.335V111H665.455V92.424ZM681.475 111.432C680.227 111.432 679.087 111.204 678.055 110.748C677.023 110.292 676.135 109.644 675.391 108.804C674.671 107.94 674.107 106.92 673.699 105.744C673.291 104.544 673.087 103.2 673.087 101.712C673.087 100.248 673.291 98.916 673.699 97.716C674.107 96.516 674.671 95.496 675.391 94.656C676.135 93.792 677.023 93.132 678.055 92.676C679.087 92.22 680.227 91.992 681.475 91.992C682.723 91.992 683.851 92.22 684.859 92.676C685.891 93.132 686.779 93.792 687.523 94.656C688.267 95.496 688.843 96.516 689.251 97.716C689.659 98.916 689.863 100.248 689.863 101.712C689.863 103.2 689.659 104.544 689.251 105.744C688.843 106.92 688.267 107.94 687.523 108.804C686.779 109.644 685.891 110.292 684.859 110.748C683.851 111.204 682.723 111.432 681.475 111.432ZM681.475 108.876C683.035 108.876 684.307 108.396 685.291 107.436C686.275 106.476 686.767 105.012 686.767 103.044V100.38C686.767 98.412 686.275 96.948 685.291 95.988C684.307 95.028 683.035 94.548 681.475 94.548C679.915 94.548 678.643 95.028 677.659 95.988C676.675 96.948 676.183 98.412 676.183 100.38V103.044C676.183 105.012 676.675 106.476 677.659 107.436C678.643 108.396 679.915 108.876 681.475 108.876ZM694.599 111V92.424H697.479V95.448H697.623C698.079 94.392 698.715 93.552 699.531 92.928C700.371 92.304 701.487 91.992 702.879 91.992C704.799 91.992 706.311 92.616 707.415 93.864C708.543 95.088 709.107 96.828 709.107 99.084V111H706.227V99.588C706.227 96.252 704.823 94.584 702.015 94.584C701.439 94.584 700.875 94.656 700.323 94.8C699.795 94.944 699.315 95.16 698.883 95.448C698.451 95.736 698.103 96.108 697.839 96.564C697.599 96.996 697.479 97.512 697.479 98.112V111H694.599Z" fill="#335077"/>
<path d="M612.864 319.94L503.123 331.334C435.96 284.559 358.002 251.577 323.82 255.175L316.024 180.215C428.763 168.222 525.311 264.17 612.864 319.94Z" fill="#EB674B"/>
<path d="M351.404 518.432C257.855 528.027 174.5 460.264 164.306 367.314L239.265 359.518C244.662 411.69 291.437 448.87 343.009 443.473L351.404 518.432Z" fill="#19A79C"/>
<path d="M239.865 359.518L164.905 367.314C155.311 273.765 223.074 190.41 316.024 180.215L323.819 255.175C272.247 261.172 234.468 307.347 239.865 359.518Z" fill="#FCC859"/>
<path d="M503.123 331.933C633.252 428.481 750.789 522.63 877.32 516.633L868.925 438.675C787.369 447.071 705.813 382.306 612.863 320.539L503.123 331.933Z" fill="#EB674B"/>
<path d="M1002.05 275.564C1002.05 274.964 1002.05 274.364 1002.05 274.364C993.657 192.209 919.897 132.841 837.742 141.236L829.946 66.2769C954.079 53.0841 1065.62 143.635 1078.81 267.768L1002.05 275.564Z" fill="#19A79C"/>
<path d="M347.806 481.252C422.166 473.457 553.495 437.476 599.67 194.008C609.265 144.235 657.239 242.581 686.023 237.784C714.808 232.987 684.824 119.048 834.143 103.457" stroke="#25414D" stroke-width="12.4959" stroke-miterlimit="10"/>
<path d="M234.335 60.3685C240.788 60.3685 246.019 55.1373 246.019 48.6842C246.019 42.2312 240.788 37 234.335 37C227.882 37 222.65 42.2312 222.65 48.6842C222.65 55.1373 227.882 60.3685 234.335 60.3685Z" fill="#FCC859"/>
<path d="M199 117.734C199 98.2367 214.837 82.3996 234.334 82.3996V94.1542C221.313 94.1542 210.755 104.712 210.755 117.734H199Z" fill="#CD573D"/>
<path d="M234.334 94.1542V82.3996C253.831 82.3996 269.668 98.2367 269.668 117.734H257.914C257.843 104.712 247.285 94.1542 234.334 94.1542Z" fill="#EB674B"/>
<path d="M199 47.1357C199 66.6328 214.837 82.4699 234.334 82.4699V70.7153C221.313 70.7153 210.755 60.1572 210.755 47.1357H199Z" fill="#30A291"/>
<path d="M234.334 70.6448V82.3995C253.831 82.3995 269.668 66.5624 269.668 47.0652H257.914C257.843 60.1572 247.285 70.6448 234.334 70.6448Z" fill="#25414D"/>
<circle cx="752.823" cy="133.823" r="22.8228" fill="#6F93C8"/>
<circle r="18" transform="matrix(1 0 0 -1 753 134)" fill="#4299E1" fill-opacity="0.48"/>
<path d="M74 347H51V323C63.6965 323 74 333.751 74 347Z" fill="#30A291"/>
<path d="M51 327.643V318C66.4951 318 79 330.951 79 347H69.6893C69.6893 336.301 61.3301 327.643 51 327.643Z" fill="#25414D"/>
<path d="M63 347H87V323C73.7514 323 63 333.751 63 347Z" fill="#EB674B"/>
<path d="M110 347H87V323C99.6965 323 110 333.751 110 347Z" fill="#EB674B"/>
<path d="M27 347H51V323C37.7514 323 27 333.751 27 347Z" fill="#30A291"/>
<path d="M22 347C22 330.951 34.9515 318 51 318V327.643C40.301 327.643 31.6432 336.301 31.6432 347H22Z" fill="#25414D"/>
<path d="M85 317C94.9411 317 103 308.717 103 298.5C103 288.283 94.9411 280 85 280C75.0589 280 67 288.283 67 298.5C67 308.717 75.0589 317 85 317Z" fill="#FCC859"/>
<path d="M52 347C52 327.687 67.6872 312 87 312V323.643C74.1016 323.643 63.6434 334.102 63.6434 347H52Z" fill="#CD573D"/>
<path d="M87 323.643V312C105.761 312 121 327.687 121 347H109.689C109.689 334.032 99.5299 323.643 87 323.643Z" fill="#CD573D"/>
<path d="M51 321C59.2843 321 66 314.284 66 306C66 297.716 59.2843 291 51 291C42.7157 291 36 297.716 36 306C36 314.284 42.7157 321 51 321Z" fill="#FCC859"/>
<path d="M253.113 545.568C256.132 531.481 270.004 522.569 284.091 525.587L283.588 527.815C282.582 532.343 279.204 535.865 274.747 537.087C269.716 538.453 265.619 542.55 264.397 548.012L253.113 545.568Z" fill="#FCC859"/>
<path d="M304 556.565C300.981 570.652 287.11 579.565 273.022 576.546L275.466 565.262C280.929 566.412 286.319 564.399 289.697 560.374C292.644 556.852 297.244 555.199 301.772 556.134L304 556.565Z" fill="#30A291"/>
<path d="M188.139 608.889C185.983 605.583 186.989 601.199 190.296 599.043L250.67 560.159L258.36 572.162L197.986 611.045C194.68 613.13 190.296 612.195 188.139 608.889Z" fill="#25414D"/>
<path d="M258.337 572.178L250.63 560.214L225.977 576.097L233.684 588.061L258.337 572.178Z" fill="#25414D"/>
<path d="M273.022 576.474C258.935 573.456 250.023 559.584 253.041 545.497L264.326 547.94C262.601 555.775 267.632 563.465 275.394 565.118L273.022 576.474Z" fill="#EB674B"/>
<path d="M253.472 573.096L247.794 564.255C246.501 562.243 247.076 559.512 249.088 558.218L256.779 553.259L267.272 569.502L259.582 574.462C257.497 575.755 254.766 575.108 253.472 573.096Z" fill="#EB674B"/>
<path d="M645.295 16.3502C649.81 16.3502 653.47 12.6901 653.47 8.17507C653.47 3.6601 649.81 0 645.295 0C640.78 0 637.12 3.6601 637.12 8.17507C637.12 12.6901 640.78 16.3502 645.295 16.3502Z" fill="#30A291"/>
<path d="M651.782 40.4859C651.782 56.7064 638.676 69.8124 622.456 69.8124V56.7064C631.409 56.7064 638.806 49.4396 638.806 40.3562H651.782V40.4859Z" fill="#FCC859"/>
<path d="M622.456 56.8361V69.9423C606.235 69.9423 593.129 56.8361 593.129 40.6157H606.235C606.106 49.4396 613.372 56.8361 622.456 56.8361Z" fill="#EB674B"/>
<path d="M638.806 52.8137V33.4789C638.806 26.2122 644.646 20.3728 651.912 20.3728V39.7076C651.782 46.9743 645.943 52.8137 638.806 52.8137Z" fill="#FCC859"/>
<path d="M606.106 53.8518V13.1061C606.106 5.8394 600.267 0 593 0V40.7457C593 48.0125 598.839 53.8518 606.106 53.8518Z" fill="#EB674B"/>
<circle cx="244.874" cy="444.874" r="24.8738" fill="#FFFCFC" fill-opacity="0.31"/>
<circle cx="215.874" cy="297.874" r="24.8738" fill="#F2D89E"/>
<circle cx="373.635" cy="218.768" r="24.8738" fill="#FBAB9B"/>
<path d="M676.685 596.074C680.377 596.074 683.37 593.081 683.37 589.389C683.37 585.697 680.377 582.704 676.685 582.704C672.993 582.704 670 585.697 670 589.389C670 593.081 672.993 596.074 676.685 596.074Z" fill="#FCC859"/>
<path d="M758.666 562.296C762.553 562.296 765.703 559.303 765.703 555.611C765.703 551.919 762.553 548.926 758.666 548.926C754.78 548.926 751.629 551.919 751.629 555.611C751.629 559.303 754.78 562.296 758.666 562.296Z" fill="#25414D"/>
<path d="M693.926 572.852H717.852V589.741H708.42C700.379 589.741 693.926 583.066 693.926 574.874V572.852Z" fill="#25414D"/>
<path d="M717.852 556.667H693.926V572.852H717.852V556.667Z" fill="#EB674B"/>
<path d="M717.852 556.667H725.199C734.332 556.667 741.778 563.935 741.778 572.852H717.852V556.667Z" fill="#FCC859"/>
<path d="M741.778 572.852H717.852V589.741H741.778V572.852Z" fill="#30A291"/>
<path d="M717.852 576.37C719.795 576.37 721.371 574.795 721.371 572.852C721.371 570.909 719.795 569.333 717.852 569.333C715.909 569.333 714.333 570.909 714.333 572.852C714.333 574.795 715.909 576.37 717.852 576.37Z" fill="white"/>
<path d="M734.741 538.416V525C751.876 525 765.704 538.514 765.704 555.259H751.976C751.976 545.956 744.26 538.416 734.741 538.416Z" fill="#25414D"/>
<path d="M670 538.37H734.741V525H683.578C676.002 525 670 530.953 670 538.37Z" fill="#30A291"/>
<path d="M700.259 606.584V620C683.514 620 670 606.486 670 589.741H683.416C683.416 599.044 690.956 606.584 700.259 606.584Z" fill="#FCC859"/>
<path d="M765.704 606.63H700.259V620H752.057C759.627 620 765.704 613.949 765.704 606.63Z" fill="#EB674B"/>
</svg>
