<svg width="406" height="190" viewBox="0 0 406 190" fill="none" xmlns="http://www.w3.org/2000/svg">
<path d="M97.492 177V174.48H101.02V154.392H97.492V151.872H107.572V154.392H104.044V174.48H107.572V177H97.492ZM112.806 177V158.424H115.686V161.448H115.83C116.286 160.392 116.922 159.552 117.738 158.928C118.578 158.304 119.694 157.992 121.086 157.992C123.006 157.992 124.518 158.616 125.622 159.864C126.75 161.088 127.314 162.828 127.314 165.084V177H124.434V165.588C124.434 162.252 123.03 160.584 120.222 160.584C119.646 160.584 119.082 160.656 118.53 160.8C118.002 160.944 117.522 161.16 117.09 161.448C116.658 161.736 116.31 162.108 116.046 162.564C115.806 162.996 115.686 163.512 115.686 164.112V177H112.806ZM145.147 173.976H145.003C143.875 176.28 142.063 177.432 139.567 177.432C138.415 177.432 137.371 177.204 136.435 176.748C135.499 176.292 134.695 175.644 134.023 174.804C133.375 173.964 132.871 172.944 132.511 171.744C132.175 170.544 132.007 169.2 132.007 167.712C132.007 166.224 132.175 164.88 132.511 163.68C132.871 162.48 133.375 161.46 134.023 160.62C134.695 159.78 135.499 159.132 136.435 158.676C137.371 158.22 138.415 157.992 139.567 157.992C140.863 157.992 141.967 158.28 142.879 158.856C143.815 159.408 144.523 160.272 145.003 161.448H145.147V150.36H148.027V177H145.147V173.976ZM140.359 174.84C141.007 174.84 141.619 174.756 142.195 174.588C142.795 174.42 143.311 174.18 143.743 173.868C144.175 173.532 144.511 173.136 144.751 172.68C145.015 172.2 145.147 171.66 145.147 171.06V164.148C145.147 163.644 145.015 163.176 144.751 162.744C144.511 162.288 144.175 161.904 143.743 161.592C143.311 161.28 142.795 161.04 142.195 160.872C141.619 160.68 141.007 160.584 140.359 160.584C138.727 160.584 137.443 161.1 136.507 162.132C135.571 163.14 135.103 164.472 135.103 166.128V169.296C135.103 170.952 135.571 172.296 136.507 173.328C137.443 174.336 138.727 174.84 140.359 174.84ZM165.598 173.976H165.454C165.262 174.408 165.022 174.84 164.734 175.272C164.47 175.68 164.134 176.052 163.726 176.388C163.318 176.7 162.826 176.952 162.25 177.144C161.674 177.336 161.002 177.432 160.234 177.432C158.314 177.432 156.79 176.82 155.662 175.596C154.534 174.348 153.97 172.596 153.97 170.34V158.424H156.85V169.836C156.85 173.172 158.266 174.84 161.098 174.84C161.674 174.84 162.226 174.768 162.754 174.624C163.306 174.48 163.786 174.264 164.194 173.976C164.626 173.688 164.962 173.328 165.202 172.896C165.466 172.44 165.598 171.9 165.598 171.276V158.424H168.478V177H165.598V173.976ZM180.191 177.432C178.463 177.432 177.011 177.108 175.835 176.46C174.683 175.788 173.687 174.9 172.847 173.796L174.899 172.14C175.619 173.052 176.423 173.76 177.311 174.264C178.199 174.744 179.231 174.984 180.407 174.984C181.631 174.984 182.579 174.72 183.251 174.192C183.947 173.664 184.295 172.92 184.295 171.96C184.295 171.24 184.055 170.628 183.575 170.124C183.119 169.596 182.279 169.236 181.055 169.044L179.579 168.828C178.715 168.708 177.923 168.528 177.203 168.288C176.483 168.024 175.847 167.688 175.295 167.28C174.767 166.848 174.347 166.32 174.035 165.696C173.747 165.072 173.603 164.328 173.603 163.464C173.603 162.552 173.771 161.76 174.107 161.088C174.443 160.392 174.899 159.816 175.475 159.36C176.075 158.904 176.783 158.568 177.599 158.352C178.415 158.112 179.291 157.992 180.227 157.992C181.739 157.992 182.999 158.256 184.007 158.784C185.039 159.312 185.939 160.044 186.707 160.98L184.799 162.708C184.391 162.132 183.791 161.616 182.999 161.16C182.207 160.68 181.211 160.44 180.011 160.44C178.811 160.44 177.899 160.704 177.275 161.232C176.675 161.736 176.375 162.432 176.375 163.32C176.375 164.232 176.675 164.892 177.275 165.3C177.899 165.708 178.787 166.008 179.939 166.2L181.379 166.416C183.443 166.728 184.907 167.328 185.771 168.216C186.635 169.08 187.067 170.22 187.067 171.636C187.067 173.436 186.455 174.852 185.231 175.884C184.007 176.916 182.327 177.432 180.191 177.432ZM196.012 177C195.004 177 194.236 176.724 193.708 176.172C193.204 175.596 192.952 174.852 192.952 173.94V160.944H189.892V158.424H191.62C192.244 158.424 192.664 158.304 192.88 158.064C193.12 157.8 193.24 157.356 193.24 156.732V153.276H195.832V158.424H199.9V160.944H195.832V174.48H199.612V177H196.012ZM204.529 177V158.424H207.409V161.844H207.589C207.925 160.956 208.525 160.164 209.389 159.468C210.253 158.772 211.441 158.424 212.953 158.424H214.069V161.304H212.377C210.817 161.304 209.593 161.604 208.705 162.204C207.841 162.78 207.409 163.512 207.409 164.4V177H204.529ZM219.188 154.068C218.564 154.068 218.108 153.924 217.82 153.636C217.556 153.324 217.424 152.928 217.424 152.448V151.98C217.424 151.5 217.556 151.116 217.82 150.828C218.108 150.516 218.564 150.36 219.188 150.36C219.812 150.36 220.256 150.516 220.52 150.828C220.808 151.116 220.952 151.5 220.952 151.98V152.448C220.952 152.928 220.808 153.324 220.52 153.636C220.256 153.924 219.812 154.068 219.188 154.068ZM217.748 158.424H220.628V177H217.748V158.424ZM240.248 177C239.168 177 238.388 176.712 237.908 176.136C237.452 175.56 237.164 174.84 237.044 173.976H236.864C236.456 175.128 235.784 175.992 234.848 176.568C233.912 177.144 232.796 177.432 231.5 177.432C229.532 177.432 227.996 176.928 226.892 175.92C225.812 174.912 225.272 173.544 225.272 171.816C225.272 170.064 225.908 168.72 227.18 167.784C228.476 166.848 230.48 166.38 233.191 166.38H236.864V164.544C236.864 163.224 236.504 162.216 235.784 161.52C235.064 160.824 233.96 160.476 232.472 160.476C231.344 160.476 230.396 160.728 229.628 161.232C228.884 161.736 228.26 162.408 227.756 163.248L226.028 161.628C226.532 160.62 227.336 159.768 228.439 159.072C229.544 158.352 230.936 157.992 232.616 157.992C234.872 157.992 236.624 158.544 237.872 159.648C239.12 160.752 239.744 162.288 239.744 164.256V174.48H241.867V177H240.248ZM231.968 174.984C232.688 174.984 233.348 174.9 233.948 174.732C234.548 174.564 235.064 174.324 235.496 174.012C235.928 173.7 236.264 173.34 236.504 172.932C236.744 172.524 236.864 172.08 236.864 171.6V168.54H233.048C231.392 168.54 230.18 168.78 229.412 169.26C228.668 169.74 228.296 170.436 228.296 171.348V172.104C228.296 173.016 228.62 173.724 229.268 174.228C229.94 174.732 230.84 174.984 231.968 174.984ZM249.038 177C248.03 177 247.262 176.724 246.734 176.172C246.23 175.596 245.978 174.876 245.978 174.012V150.36H248.858V174.48H251.594V177H249.038ZM264.582 151.872H273.006C274.566 151.872 275.982 152.136 277.254 152.664C278.526 153.192 279.606 153.984 280.494 155.04C281.406 156.072 282.102 157.38 282.582 158.964C283.062 160.524 283.302 162.348 283.302 164.436C283.302 166.524 283.062 168.36 282.582 169.944C282.102 171.504 281.406 172.812 280.494 173.868C279.606 174.9 278.526 175.68 277.254 176.208C275.982 176.736 274.566 177 273.006 177H264.582V151.872ZM273.006 174.336C274.038 174.336 274.986 174.168 275.85 173.832C276.714 173.472 277.458 172.956 278.082 172.284C278.706 171.612 279.186 170.796 279.522 169.836C279.882 168.852 280.062 167.736 280.062 166.488V162.384C280.062 161.136 279.882 160.032 279.522 159.072C279.186 158.088 278.706 157.26 278.082 156.588C277.458 155.916 276.714 155.412 275.85 155.076C274.986 154.716 274.038 154.536 273.006 154.536H267.606V174.336H273.006ZM295.431 177.432C294.159 177.432 293.007 177.204 291.975 176.748C290.967 176.292 290.091 175.644 289.347 174.804C288.627 173.94 288.063 172.92 287.655 171.744C287.271 170.544 287.079 169.2 287.079 167.712C287.079 166.248 287.271 164.916 287.655 163.716C288.063 162.516 288.627 161.496 289.347 160.656C290.091 159.792 290.967 159.132 291.975 158.676C293.007 158.22 294.159 157.992 295.431 157.992C296.679 157.992 297.795 158.22 298.779 158.676C299.763 159.132 300.603 159.768 301.299 160.584C301.995 161.376 302.523 162.324 302.883 163.428C303.267 164.532 303.459 165.744 303.459 167.064V168.432H290.103V169.296C290.103 170.088 290.223 170.832 290.463 171.528C290.727 172.2 291.087 172.788 291.543 173.292C292.023 173.796 292.599 174.192 293.271 174.48C293.967 174.768 294.747 174.912 295.611 174.912C296.787 174.912 297.807 174.636 298.671 174.084C299.559 173.532 300.243 172.74 300.723 171.708L302.775 173.184C302.175 174.456 301.239 175.488 299.967 176.28C298.695 177.048 297.183 177.432 295.431 177.432ZM295.431 160.404C294.639 160.404 293.919 160.548 293.271 160.836C292.623 161.1 292.059 161.484 291.579 161.988C291.123 162.492 290.763 163.092 290.499 163.788C290.235 164.46 290.103 165.204 290.103 166.02V166.272H300.363V165.876C300.363 164.22 299.907 162.9 298.995 161.916C298.107 160.908 296.919 160.404 295.431 160.404ZM313.785 177.432C312.057 177.432 310.605 177.108 309.429 176.46C308.277 175.788 307.281 174.9 306.441 173.796L308.493 172.14C309.213 173.052 310.017 173.76 310.905 174.264C311.793 174.744 312.825 174.984 314.001 174.984C315.225 174.984 316.173 174.72 316.845 174.192C317.541 173.664 317.889 172.92 317.889 171.96C317.889 171.24 317.649 170.628 317.169 170.124C316.713 169.596 315.873 169.236 314.649 169.044L313.173 168.828C312.309 168.708 311.517 168.528 310.797 168.288C310.077 168.024 309.441 167.688 308.889 167.28C308.361 166.848 307.941 166.32 307.629 165.696C307.341 165.072 307.197 164.328 307.197 163.464C307.197 162.552 307.365 161.76 307.701 161.088C308.037 160.392 308.493 159.816 309.069 159.36C309.669 158.904 310.377 158.568 311.193 158.352C312.009 158.112 312.885 157.992 313.821 157.992C315.333 157.992 316.593 158.256 317.601 158.784C318.633 159.312 319.533 160.044 320.301 160.98L318.393 162.708C317.985 162.132 317.385 161.616 316.593 161.16C315.801 160.68 314.805 160.44 313.605 160.44C312.405 160.44 311.493 160.704 310.869 161.232C310.269 161.736 309.969 162.432 309.969 163.32C309.969 164.232 310.269 164.892 310.869 165.3C311.493 165.708 312.381 166.008 313.533 166.2L314.973 166.416C317.037 166.728 318.501 167.328 319.365 168.216C320.229 169.08 320.661 170.22 320.661 171.636C320.661 173.436 320.049 174.852 318.825 175.884C317.601 176.916 315.921 177.432 313.785 177.432ZM327.188 154.068C326.564 154.068 326.108 153.924 325.82 153.636C325.556 153.324 325.424 152.928 325.424 152.448V151.98C325.424 151.5 325.556 151.116 325.82 150.828C326.108 150.516 326.564 150.36 327.188 150.36C327.812 150.36 328.256 150.516 328.52 150.828C328.808 151.116 328.952 151.5 328.952 151.98V152.448C328.952 152.928 328.808 153.324 328.52 153.636C328.256 153.924 327.812 154.068 327.188 154.068ZM325.748 158.424H328.628V177H325.748V158.424ZM350.408 179.052C350.408 180.972 349.652 182.376 348.14 183.264C346.652 184.176 344.408 184.632 341.408 184.632C338.504 184.632 336.416 184.236 335.144 183.444C333.872 182.652 333.236 181.524 333.236 180.06C333.236 179.052 333.5 178.26 334.028 177.684C334.556 177.132 335.276 176.724 336.188 176.46V176.064C335.084 175.536 334.532 174.672 334.532 173.472C334.532 172.536 334.832 171.828 335.432 171.348C336.032 170.844 336.8 170.472 337.736 170.232V170.088C336.632 169.56 335.768 168.804 335.144 167.82C334.544 166.836 334.244 165.696 334.244 164.4C334.244 163.464 334.412 162.6 334.748 161.808C335.084 161.016 335.552 160.344 336.152 159.792C336.776 159.216 337.508 158.772 338.348 158.46C339.212 158.148 340.172 157.992 341.228 157.992C342.548 157.992 343.724 158.232 344.756 158.712V158.388C344.756 157.668 344.924 157.08 345.26 156.624C345.596 156.144 346.148 155.904 346.916 155.904H349.688V158.424H346.16V159.612C346.832 160.188 347.348 160.884 347.708 161.7C348.092 162.492 348.284 163.392 348.284 164.4C348.284 165.336 348.116 166.2 347.78 166.992C347.444 167.784 346.964 168.468 346.34 169.044C345.74 169.596 345.008 170.028 344.144 170.34C343.28 170.652 342.32 170.808 341.264 170.808C340.664 170.808 340.064 170.748 339.464 170.628C338.84 170.796 338.276 171.048 337.772 171.384C337.268 171.696 337.016 172.14 337.016 172.716C337.016 173.268 337.28 173.64 337.808 173.832C338.336 174.024 339.02 174.12 339.86 174.12H343.82C346.124 174.12 347.792 174.564 348.824 175.452C349.88 176.316 350.408 177.516 350.408 179.052ZM347.708 179.268C347.708 178.524 347.42 177.924 346.844 177.468C346.292 177.036 345.296 176.82 343.856 176.82H337.664C336.512 177.348 335.936 178.188 335.936 179.34C335.936 180.156 336.236 180.852 336.836 181.428C337.46 182.004 338.504 182.292 339.968 182.292H342.632C344.24 182.292 345.488 182.04 346.376 181.536C347.264 181.032 347.708 180.276 347.708 179.268ZM341.264 168.504C342.488 168.504 343.46 168.216 344.18 167.64C344.9 167.04 345.26 166.128 345.26 164.904V163.896C345.26 162.672 344.9 161.772 344.18 161.196C343.46 160.596 342.488 160.296 341.264 160.296C340.04 160.296 339.068 160.596 338.348 161.196C337.628 161.772 337.268 162.672 337.268 163.896V164.904C337.268 166.128 337.628 167.04 338.348 167.64C339.068 168.216 340.04 168.504 341.264 168.504ZM353.767 177V158.424H356.647V161.448H356.791C357.247 160.392 357.883 159.552 358.699 158.928C359.539 158.304 360.655 157.992 362.047 157.992C363.967 157.992 365.479 158.616 366.583 159.864C367.711 161.088 368.275 162.828 368.275 165.084V177H365.395V165.588C365.395 162.252 363.991 160.584 361.183 160.584C360.607 160.584 360.043 160.656 359.491 160.8C358.963 160.944 358.483 161.16 358.051 161.448C357.619 161.736 357.271 162.108 357.007 162.564C356.767 162.996 356.647 163.512 356.647 164.112V177H353.767Z" fill="#335077"/>
<path d="M98.68 15.872H107.104C108.664 15.872 110.08 16.136 111.352 16.664C112.624 17.192 113.704 17.984 114.592 19.04C115.504 20.072 116.2 21.38 116.68 22.964C117.16 24.524 117.4 26.348 117.4 28.436C117.4 30.524 117.16 32.36 116.68 33.944C116.2 35.504 115.504 36.812 114.592 37.868C113.704 38.9 112.624 39.68 111.352 40.208C110.08 40.736 108.664 41 107.104 41H98.68V15.872ZM107.104 38.336C108.136 38.336 109.084 38.168 109.948 37.832C110.812 37.472 111.556 36.956 112.18 36.284C112.804 35.612 113.284 34.796 113.62 33.836C113.98 32.852 114.16 31.736 114.16 30.488V26.384C114.16 25.136 113.98 24.032 113.62 23.072C113.284 22.088 112.804 21.26 112.18 20.588C111.556 19.916 110.812 19.412 109.948 19.076C109.084 18.716 108.136 18.536 107.104 18.536H101.704V38.336H107.104ZM129.528 41.432C128.256 41.432 127.104 41.204 126.072 40.748C125.064 40.292 124.188 39.644 123.444 38.804C122.724 37.94 122.16 36.92 121.752 35.744C121.368 34.544 121.176 33.2 121.176 31.712C121.176 30.248 121.368 28.916 121.752 27.716C122.16 26.516 122.724 25.496 123.444 24.656C124.188 23.792 125.064 23.132 126.072 22.676C127.104 22.22 128.256 21.992 129.528 21.992C130.776 21.992 131.892 22.22 132.876 22.676C133.86 23.132 134.7 23.768 135.396 24.584C136.092 25.376 136.62 26.324 136.98 27.428C137.364 28.532 137.556 29.744 137.556 31.064V32.432H124.2V33.296C124.2 34.088 124.32 34.832 124.56 35.528C124.824 36.2 125.184 36.788 125.64 37.292C126.12 37.796 126.696 38.192 127.368 38.48C128.064 38.768 128.844 38.912 129.708 38.912C130.884 38.912 131.904 38.636 132.768 38.084C133.656 37.532 134.34 36.74 134.82 35.708L136.872 37.184C136.272 38.456 135.336 39.488 134.064 40.28C132.792 41.048 131.28 41.432 129.528 41.432ZM129.528 24.404C128.736 24.404 128.016 24.548 127.368 24.836C126.72 25.1 126.156 25.484 125.676 25.988C125.22 26.492 124.86 27.092 124.596 27.788C124.332 28.46 124.2 29.204 124.2 30.02V30.272H134.46V29.876C134.46 28.22 134.004 26.9 133.092 25.916C132.204 24.908 131.016 24.404 129.528 24.404ZM147.882 41.432C146.154 41.432 144.702 41.108 143.526 40.46C142.374 39.788 141.378 38.9 140.538 37.796L142.59 36.14C143.31 37.052 144.114 37.76 145.002 38.264C145.89 38.744 146.922 38.984 148.098 38.984C149.322 38.984 150.27 38.72 150.942 38.192C151.638 37.664 151.986 36.92 151.986 35.96C151.986 35.24 151.746 34.628 151.266 34.124C150.81 33.596 149.97 33.236 148.746 33.044L147.27 32.828C146.406 32.708 145.614 32.528 144.894 32.288C144.174 32.024 143.538 31.688 142.986 31.28C142.458 30.848 142.038 30.32 141.726 29.696C141.438 29.072 141.294 28.328 141.294 27.464C141.294 26.552 141.462 25.76 141.798 25.088C142.134 24.392 142.59 23.816 143.166 23.36C143.766 22.904 144.474 22.568 145.29 22.352C146.106 22.112 146.982 21.992 147.918 21.992C149.43 21.992 150.69 22.256 151.698 22.784C152.73 23.312 153.63 24.044 154.398 24.98L152.49 26.708C152.082 26.132 151.482 25.616 150.69 25.16C149.898 24.68 148.902 24.44 147.702 24.44C146.502 24.44 145.59 24.704 144.966 25.232C144.366 25.736 144.066 26.432 144.066 27.32C144.066 28.232 144.366 28.892 144.966 29.3C145.59 29.708 146.478 30.008 147.63 30.2L149.07 30.416C151.134 30.728 152.598 31.328 153.462 32.216C154.326 33.08 154.758 34.22 154.758 35.636C154.758 37.436 154.146 38.852 152.922 39.884C151.698 40.916 150.018 41.432 147.882 41.432ZM161.285 18.068C160.661 18.068 160.205 17.924 159.917 17.636C159.653 17.324 159.521 16.928 159.521 16.448V15.98C159.521 15.5 159.653 15.116 159.917 14.828C160.205 14.516 160.661 14.36 161.285 14.36C161.909 14.36 162.353 14.516 162.617 14.828C162.905 15.116 163.049 15.5 163.049 15.98V16.448C163.049 16.928 162.905 17.324 162.617 17.636C162.353 17.924 161.909 18.068 161.285 18.068ZM159.845 22.424H162.725V41H159.845V22.424ZM184.505 43.052C184.505 44.972 183.749 46.376 182.237 47.264C180.749 48.176 178.505 48.632 175.505 48.632C172.601 48.632 170.513 48.236 169.241 47.444C167.969 46.652 167.333 45.524 167.333 44.06C167.333 43.052 167.597 42.26 168.125 41.684C168.653 41.132 169.373 40.724 170.285 40.46V40.064C169.181 39.536 168.629 38.672 168.629 37.472C168.629 36.536 168.929 35.828 169.529 35.348C170.129 34.844 170.897 34.472 171.833 34.232V34.088C170.729 33.56 169.865 32.804 169.241 31.82C168.641 30.836 168.341 29.696 168.341 28.4C168.341 27.464 168.509 26.6 168.845 25.808C169.181 25.016 169.649 24.344 170.249 23.792C170.873 23.216 171.605 22.772 172.445 22.46C173.309 22.148 174.269 21.992 175.325 21.992C176.645 21.992 177.821 22.232 178.853 22.712V22.388C178.853 21.668 179.021 21.08 179.357 20.624C179.693 20.144 180.245 19.904 181.013 19.904H183.785V22.424H180.257V23.612C180.929 24.188 181.445 24.884 181.805 25.7C182.189 26.492 182.381 27.392 182.381 28.4C182.381 29.336 182.213 30.2 181.877 30.992C181.541 31.784 181.061 32.468 180.437 33.044C179.837 33.596 179.105 34.028 178.241 34.34C177.377 34.652 176.417 34.808 175.361 34.808C174.761 34.808 174.161 34.748 173.561 34.628C172.937 34.796 172.373 35.048 171.869 35.384C171.365 35.696 171.113 36.14 171.113 36.716C171.113 37.268 171.377 37.64 171.905 37.832C172.433 38.024 173.117 38.12 173.957 38.12H177.917C180.221 38.12 181.889 38.564 182.921 39.452C183.977 40.316 184.505 41.516 184.505 43.052ZM181.805 43.268C181.805 42.524 181.517 41.924 180.941 41.468C180.389 41.036 179.393 40.82 177.953 40.82H171.761C170.609 41.348 170.033 42.188 170.033 43.34C170.033 44.156 170.333 44.852 170.933 45.428C171.557 46.004 172.601 46.292 174.065 46.292H176.729C178.337 46.292 179.585 46.04 180.473 45.536C181.361 45.032 181.805 44.276 181.805 43.268ZM175.361 32.504C176.585 32.504 177.557 32.216 178.277 31.64C178.997 31.04 179.357 30.128 179.357 28.904V27.896C179.357 26.672 178.997 25.772 178.277 25.196C177.557 24.596 176.585 24.296 175.361 24.296C174.137 24.296 173.165 24.596 172.445 25.196C171.725 25.772 171.365 26.672 171.365 27.896V28.904C171.365 30.128 171.725 31.04 172.445 31.64C173.165 32.216 174.137 32.504 175.361 32.504ZM187.865 41V22.424H190.745V25.448H190.889C191.345 24.392 191.981 23.552 192.797 22.928C193.637 22.304 194.753 21.992 196.145 21.992C198.065 21.992 199.577 22.616 200.681 23.864C201.809 25.088 202.373 26.828 202.373 29.084V41H199.493V29.588C199.493 26.252 198.089 24.584 195.281 24.584C194.705 24.584 194.141 24.656 193.589 24.8C193.061 24.944 192.581 25.16 192.149 25.448C191.717 25.736 191.369 26.108 191.105 26.564C190.865 26.996 190.745 27.512 190.745 28.112V41H187.865ZM220.145 41H217.121V15.872H227.129C229.337 15.872 231.053 16.484 232.277 17.708C233.525 18.932 234.149 20.696 234.149 23C234.149 24.848 233.717 26.372 232.853 27.572C232.013 28.748 230.765 29.528 229.109 29.912L234.869 41H231.449L226.013 30.2H220.145V41ZM227.129 27.608C228.329 27.608 229.253 27.296 229.901 26.672C230.573 26.048 230.909 25.16 230.909 24.008V22.136C230.909 20.984 230.573 20.096 229.901 19.472C229.253 18.848 228.329 18.536 227.129 18.536H220.145V27.608H227.129ZM246.317 41.432C245.045 41.432 243.893 41.204 242.861 40.748C241.853 40.292 240.977 39.644 240.233 38.804C239.513 37.94 238.949 36.92 238.541 35.744C238.157 34.544 237.965 33.2 237.965 31.712C237.965 30.248 238.157 28.916 238.541 27.716C238.949 26.516 239.513 25.496 240.233 24.656C240.977 23.792 241.853 23.132 242.861 22.676C243.893 22.22 245.045 21.992 246.317 21.992C247.565 21.992 248.681 22.22 249.665 22.676C250.649 23.132 251.489 23.768 252.185 24.584C252.881 25.376 253.409 26.324 253.769 27.428C254.153 28.532 254.345 29.744 254.345 31.064V32.432H240.989V33.296C240.989 34.088 241.109 34.832 241.349 35.528C241.613 36.2 241.973 36.788 242.429 37.292C242.909 37.796 243.485 38.192 244.157 38.48C244.853 38.768 245.633 38.912 246.497 38.912C247.673 38.912 248.693 38.636 249.557 38.084C250.445 37.532 251.129 36.74 251.609 35.708L253.661 37.184C253.061 38.456 252.125 39.488 250.853 40.28C249.581 41.048 248.069 41.432 246.317 41.432ZM246.317 24.404C245.525 24.404 244.805 24.548 244.157 24.836C243.509 25.1 242.945 25.484 242.465 25.988C242.009 26.492 241.649 27.092 241.385 27.788C241.121 28.46 240.989 29.204 240.989 30.02V30.272H251.249V29.876C251.249 28.22 250.793 26.9 249.881 25.916C248.993 24.908 247.805 24.404 246.317 24.404ZM264.671 41.432C262.943 41.432 261.491 41.108 260.315 40.46C259.163 39.788 258.167 38.9 257.327 37.796L259.379 36.14C260.099 37.052 260.903 37.76 261.791 38.264C262.679 38.744 263.711 38.984 264.887 38.984C266.111 38.984 267.059 38.72 267.731 38.192C268.427 37.664 268.775 36.92 268.775 35.96C268.775 35.24 268.535 34.628 268.055 34.124C267.599 33.596 266.759 33.236 265.535 33.044L264.059 32.828C263.195 32.708 262.403 32.528 261.683 32.288C260.963 32.024 260.327 31.688 259.775 31.28C259.247 30.848 258.827 30.32 258.515 29.696C258.227 29.072 258.083 28.328 258.083 27.464C258.083 26.552 258.251 25.76 258.587 25.088C258.923 24.392 259.379 23.816 259.955 23.36C260.555 22.904 261.263 22.568 262.079 22.352C262.895 22.112 263.771 21.992 264.707 21.992C266.219 21.992 267.479 22.256 268.487 22.784C269.519 23.312 270.419 24.044 271.187 24.98L269.279 26.708C268.871 26.132 268.271 25.616 267.479 25.16C266.687 24.68 265.691 24.44 264.491 24.44C263.291 24.44 262.379 24.704 261.755 25.232C261.155 25.736 260.855 26.432 260.855 27.32C260.855 28.232 261.155 28.892 261.755 29.3C262.379 29.708 263.267 30.008 264.419 30.2L265.859 30.416C267.923 30.728 269.387 31.328 270.251 32.216C271.115 33.08 271.547 34.22 271.547 35.636C271.547 37.436 270.935 38.852 269.711 39.884C268.487 40.916 266.807 41.432 264.671 41.432ZM283.618 41.432C282.346 41.432 281.194 41.204 280.162 40.748C279.154 40.292 278.278 39.644 277.534 38.804C276.814 37.94 276.25 36.92 275.842 35.744C275.458 34.544 275.266 33.2 275.266 31.712C275.266 30.248 275.458 28.916 275.842 27.716C276.25 26.516 276.814 25.496 277.534 24.656C278.278 23.792 279.154 23.132 280.162 22.676C281.194 22.22 282.346 21.992 283.618 21.992C284.866 21.992 285.982 22.22 286.966 22.676C287.95 23.132 288.79 23.768 289.486 24.584C290.182 25.376 290.71 26.324 291.07 27.428C291.454 28.532 291.646 29.744 291.646 31.064V32.432H278.29V33.296C278.29 34.088 278.41 34.832 278.65 35.528C278.914 36.2 279.274 36.788 279.73 37.292C280.21 37.796 280.786 38.192 281.458 38.48C282.154 38.768 282.934 38.912 283.798 38.912C284.974 38.912 285.994 38.636 286.858 38.084C287.746 37.532 288.43 36.74 288.91 35.708L290.962 37.184C290.362 38.456 289.426 39.488 288.154 40.28C286.882 41.048 285.37 41.432 283.618 41.432ZM283.618 24.404C282.826 24.404 282.106 24.548 281.458 24.836C280.81 25.1 280.246 25.484 279.766 25.988C279.31 26.492 278.95 27.092 278.686 27.788C278.422 28.46 278.29 29.204 278.29 30.02V30.272H288.55V29.876C288.55 28.22 288.094 26.9 287.182 25.916C286.294 24.908 285.106 24.404 283.618 24.404ZM309.892 41C308.812 41 308.032 40.712 307.552 40.136C307.096 39.56 306.808 38.84 306.688 37.976H306.508C306.1 39.128 305.428 39.992 304.492 40.568C303.556 41.144 302.44 41.432 301.144 41.432C299.176 41.432 297.64 40.928 296.536 39.92C295.456 38.912 294.916 37.544 294.916 35.816C294.916 34.064 295.552 32.72 296.824 31.784C298.12 30.848 300.124 30.38 302.836 30.38H306.508V28.544C306.508 27.224 306.148 26.216 305.428 25.52C304.708 24.824 303.604 24.476 302.116 24.476C300.988 24.476 300.04 24.728 299.272 25.232C298.528 25.736 297.904 26.408 297.4 27.248L295.672 25.628C296.176 24.62 296.98 23.768 298.084 23.072C299.188 22.352 300.58 21.992 302.26 21.992C304.516 21.992 306.268 22.544 307.516 23.648C308.764 24.752 309.388 26.288 309.388 28.256V38.48H311.512V41H309.892ZM301.612 38.984C302.332 38.984 302.992 38.9 303.592 38.732C304.192 38.564 304.708 38.324 305.14 38.012C305.572 37.7 305.908 37.34 306.148 36.932C306.388 36.524 306.508 36.08 306.508 35.6V32.54H302.692C301.036 32.54 299.824 32.78 299.056 33.26C298.312 33.74 297.94 34.436 297.94 35.348V36.104C297.94 37.016 298.264 37.724 298.912 38.228C299.584 38.732 300.484 38.984 301.612 38.984ZM315.623 41V22.424H318.503V25.844H318.683C319.019 24.956 319.619 24.164 320.483 23.468C321.347 22.772 322.535 22.424 324.047 22.424H325.163V25.304H323.471C321.911 25.304 320.687 25.604 319.799 26.204C318.935 26.78 318.503 27.512 318.503 28.4V41H315.623ZM335.577 41.432C334.281 41.432 333.117 41.204 332.085 40.748C331.053 40.292 330.177 39.644 329.457 38.804C328.761 37.964 328.221 36.944 327.837 35.744C327.477 34.544 327.297 33.2 327.297 31.712C327.297 30.224 327.477 28.88 327.837 27.68C328.221 26.48 328.761 25.46 329.457 24.62C330.177 23.78 331.053 23.132 332.085 22.676C333.117 22.22 334.281 21.992 335.577 21.992C337.425 21.992 338.901 22.4 340.005 23.216C341.133 24.008 341.973 25.052 342.525 26.348L340.113 27.572C339.777 26.612 339.225 25.868 338.457 25.34C337.689 24.812 336.729 24.548 335.577 24.548C334.713 24.548 333.957 24.692 333.309 24.98C332.661 25.244 332.121 25.628 331.689 26.132C331.257 26.612 330.933 27.2 330.717 27.896C330.501 28.568 330.393 29.312 330.393 30.128V33.296C330.393 34.928 330.825 36.272 331.689 37.328C332.577 38.36 333.873 38.876 335.577 38.876C337.905 38.876 339.585 37.796 340.617 35.636L342.705 37.04C342.105 38.384 341.205 39.452 340.005 40.244C338.829 41.036 337.353 41.432 335.577 41.432ZM346.771 14.36H349.651V25.448H349.795C350.251 24.392 350.887 23.552 351.703 22.928C352.543 22.304 353.659 21.992 355.051 21.992C356.971 21.992 358.483 22.616 359.587 23.864C360.715 25.088 361.279 26.828 361.279 29.084V41H358.399V29.588C358.399 26.252 356.995 24.584 354.187 24.584C353.611 24.584 353.047 24.656 352.495 24.8C351.967 24.944 351.487 25.16 351.055 25.448C350.623 25.736 350.275 26.108 350.011 26.564C349.771 26.996 349.651 27.512 349.651 28.112V41H346.771V14.36Z" fill="#335077"/>
<path d="M97.492 109V106.48H101.02V86.392H97.492V83.872H107.572V86.392H104.044V106.48H107.572V109H97.492ZM112.806 109V90.424H115.686V93.448H115.83C116.286 92.392 116.922 91.552 117.738 90.928C118.578 90.304 119.694 89.992 121.086 89.992C123.006 89.992 124.518 90.616 125.622 91.864C126.75 93.088 127.314 94.828 127.314 97.084V109H124.434V97.588C124.434 94.252 123.03 92.584 120.222 92.584C119.646 92.584 119.082 92.656 118.53 92.8C118.002 92.944 117.522 93.16 117.09 93.448C116.658 93.736 116.31 94.108 116.046 94.564C115.806 94.996 115.686 95.512 115.686 96.112V109H112.806ZM137.371 109C136.363 109 135.595 108.724 135.067 108.172C134.563 107.596 134.311 106.852 134.311 105.94V92.944H131.251V90.424H132.979C133.603 90.424 134.023 90.304 134.239 90.064C134.479 89.8 134.599 89.356 134.599 88.732V85.276H137.191V90.424H141.259V92.944H137.191V106.48H140.971V109H137.371ZM152.732 109.432C151.46 109.432 150.308 109.204 149.276 108.748C148.268 108.292 147.392 107.644 146.648 106.804C145.928 105.94 145.364 104.92 144.956 103.744C144.572 102.544 144.38 101.2 144.38 99.712C144.38 98.248 144.572 96.916 144.956 95.716C145.364 94.516 145.928 93.496 146.648 92.656C147.392 91.792 148.268 91.132 149.276 90.676C150.308 90.22 151.46 89.992 152.732 89.992C153.98 89.992 155.096 90.22 156.08 90.676C157.064 91.132 157.904 91.768 158.6 92.584C159.296 93.376 159.824 94.324 160.184 95.428C160.568 96.532 160.76 97.744 160.76 99.064V100.432H147.404V101.296C147.404 102.088 147.524 102.832 147.764 103.528C148.028 104.2 148.388 104.788 148.844 105.292C149.324 105.796 149.9 106.192 150.572 106.48C151.268 106.768 152.048 106.912 152.912 106.912C154.088 106.912 155.108 106.636 155.972 106.084C156.86 105.532 157.544 104.74 158.024 103.708L160.076 105.184C159.476 106.456 158.54 107.488 157.268 108.28C155.996 109.048 154.484 109.432 152.732 109.432ZM152.732 92.404C151.94 92.404 151.22 92.548 150.572 92.836C149.924 93.1 149.36 93.484 148.88 93.988C148.424 94.492 148.064 95.092 147.8 95.788C147.536 96.46 147.404 97.204 147.404 98.02V98.272H157.664V97.876C157.664 96.22 157.208 94.9 156.296 93.916C155.408 92.908 154.22 92.404 152.732 92.404ZM165.505 109V90.424H168.385V93.844H168.565C168.901 92.956 169.501 92.164 170.365 91.468C171.229 90.772 172.417 90.424 173.929 90.424H175.045V93.304H173.353C171.793 93.304 170.569 93.604 169.681 94.204C168.817 94.78 168.385 95.512 168.385 96.4V109H165.505ZM192.083 109C191.003 109 190.223 108.712 189.743 108.136C189.287 107.56 188.999 106.84 188.879 105.976H188.699C188.291 107.128 187.619 107.992 186.683 108.568C185.747 109.144 184.631 109.432 183.335 109.432C181.367 109.432 179.831 108.928 178.727 107.92C177.647 106.912 177.107 105.544 177.107 103.816C177.107 102.064 177.743 100.72 179.015 99.784C180.311 98.848 182.315 98.38 185.027 98.38H188.699V96.544C188.699 95.224 188.339 94.216 187.619 93.52C186.899 92.824 185.795 92.476 184.307 92.476C183.179 92.476 182.231 92.728 181.463 93.232C180.719 93.736 180.095 94.408 179.591 95.248L177.863 93.628C178.367 92.62 179.171 91.768 180.275 91.072C181.379 90.352 182.771 89.992 184.451 89.992C186.707 89.992 188.459 90.544 189.707 91.648C190.955 92.752 191.579 94.288 191.579 96.256V106.48H193.703V109H192.083ZM183.803 106.984C184.523 106.984 185.183 106.9 185.783 106.732C186.383 106.564 186.899 106.324 187.331 106.012C187.763 105.7 188.099 105.34 188.339 104.932C188.579 104.524 188.699 104.08 188.699 103.6V100.54H184.883C183.227 100.54 182.015 100.78 181.247 101.26C180.503 101.74 180.131 102.436 180.131 103.348V104.104C180.131 105.016 180.455 105.724 181.103 106.228C181.775 106.732 182.675 106.984 183.803 106.984ZM204.726 109.432C203.43 109.432 202.266 109.204 201.234 108.748C200.202 108.292 199.326 107.644 198.606 106.804C197.91 105.964 197.37 104.944 196.986 103.744C196.626 102.544 196.446 101.2 196.446 99.712C196.446 98.224 196.626 96.88 196.986 95.68C197.37 94.48 197.91 93.46 198.606 92.62C199.326 91.78 200.202 91.132 201.234 90.676C202.266 90.22 203.43 89.992 204.726 89.992C206.574 89.992 208.05 90.4 209.154 91.216C210.282 92.008 211.122 93.052 211.674 94.348L209.262 95.572C208.926 94.612 208.374 93.868 207.606 93.34C206.838 92.812 205.878 92.548 204.726 92.548C203.862 92.548 203.106 92.692 202.458 92.98C201.81 93.244 201.27 93.628 200.838 94.132C200.406 94.612 200.082 95.2 199.866 95.896C199.65 96.568 199.542 97.312 199.542 98.128V101.296C199.542 102.928 199.974 104.272 200.838 105.328C201.726 106.36 203.022 106.876 204.726 106.876C207.054 106.876 208.734 105.796 209.766 103.636L211.854 105.04C211.254 106.384 210.354 107.452 209.154 108.244C207.978 109.036 206.502 109.432 204.726 109.432ZM220.023 109C219.015 109 218.247 108.724 217.719 108.172C217.215 107.596 216.963 106.852 216.963 105.94V92.944H213.903V90.424H215.631C216.255 90.424 216.675 90.304 216.891 90.064C217.131 89.8 217.251 89.356 217.251 88.732V85.276H219.843V90.424H223.911V92.944H219.843V106.48H223.623V109H220.023ZM229.98 86.068C229.356 86.068 228.9 85.924 228.612 85.636C228.348 85.324 228.216 84.928 228.216 84.448V83.98C228.216 83.5 228.348 83.116 228.612 82.828C228.9 82.516 229.356 82.36 229.98 82.36C230.604 82.36 231.048 82.516 231.312 82.828C231.6 83.116 231.744 83.5 231.744 83.98V84.448C231.744 84.928 231.6 85.324 231.312 85.636C231.048 85.924 230.604 86.068 229.98 86.068ZM228.54 90.424H231.42V109H228.54V90.424ZM244.56 109.432C243.312 109.432 242.172 109.204 241.14 108.748C240.108 108.292 239.22 107.644 238.476 106.804C237.756 105.94 237.192 104.92 236.784 103.744C236.376 102.544 236.172 101.2 236.172 99.712C236.172 98.248 236.376 96.916 236.784 95.716C237.192 94.516 237.756 93.496 238.476 92.656C239.22 91.792 240.108 91.132 241.14 90.676C242.172 90.22 243.312 89.992 244.56 89.992C245.808 89.992 246.936 90.22 247.944 90.676C248.976 91.132 249.864 91.792 250.608 92.656C251.352 93.496 251.928 94.516 252.336 95.716C252.744 96.916 252.948 98.248 252.948 99.712C252.948 101.2 252.744 102.544 252.336 103.744C251.928 104.92 251.352 105.94 250.608 106.804C249.864 107.644 248.976 108.292 247.944 108.748C246.936 109.204 245.808 109.432 244.56 109.432ZM244.56 106.876C246.12 106.876 247.392 106.396 248.376 105.436C249.36 104.476 249.852 103.012 249.852 101.044V98.38C249.852 96.412 249.36 94.948 248.376 93.988C247.392 93.028 246.12 92.548 244.56 92.548C243 92.548 241.728 93.028 240.744 93.988C239.76 94.948 239.268 96.412 239.268 98.38V101.044C239.268 103.012 239.76 104.476 240.744 105.436C241.728 106.396 243 106.876 244.56 106.876ZM257.685 109V90.424H260.565V93.448H260.709C261.165 92.392 261.801 91.552 262.617 90.928C263.457 90.304 264.573 89.992 265.965 89.992C267.885 89.992 269.397 90.616 270.501 91.864C271.629 93.088 272.193 94.828 272.193 97.084V109H269.313V97.588C269.313 94.252 267.909 92.584 265.101 92.584C264.525 92.584 263.961 92.656 263.409 92.8C262.881 92.944 262.401 93.16 261.969 93.448C261.537 93.736 261.189 94.108 260.925 94.564C260.685 94.996 260.565 95.512 260.565 96.112V109H257.685ZM286.942 83.872H295.366C296.926 83.872 298.342 84.136 299.614 84.664C300.886 85.192 301.966 85.984 302.854 87.04C303.766 88.072 304.462 89.38 304.942 90.964C305.422 92.524 305.662 94.348 305.662 96.436C305.662 98.524 305.422 100.36 304.942 101.944C304.462 103.504 303.766 104.812 302.854 105.868C301.966 106.9 300.886 107.68 299.614 108.208C298.342 108.736 296.926 109 295.366 109H286.942V83.872ZM295.366 106.336C296.398 106.336 297.346 106.168 298.21 105.832C299.074 105.472 299.818 104.956 300.442 104.284C301.066 103.612 301.546 102.796 301.882 101.836C302.242 100.852 302.422 99.736 302.422 98.488V94.384C302.422 93.136 302.242 92.032 301.882 91.072C301.546 90.088 301.066 89.26 300.442 88.588C299.818 87.916 299.074 87.412 298.21 87.076C297.346 86.716 296.398 86.536 295.366 86.536H289.966V106.336H295.366ZM317.79 109.432C316.518 109.432 315.366 109.204 314.334 108.748C313.326 108.292 312.45 107.644 311.706 106.804C310.986 105.94 310.422 104.92 310.014 103.744C309.63 102.544 309.438 101.2 309.438 99.712C309.438 98.248 309.63 96.916 310.014 95.716C310.422 94.516 310.986 93.496 311.706 92.656C312.45 91.792 313.326 91.132 314.334 90.676C315.366 90.22 316.518 89.992 317.79 89.992C319.038 89.992 320.154 90.22 321.138 90.676C322.122 91.132 322.962 91.768 323.658 92.584C324.354 93.376 324.882 94.324 325.242 95.428C325.626 96.532 325.818 97.744 325.818 99.064V100.432H312.462V101.296C312.462 102.088 312.582 102.832 312.822 103.528C313.086 104.2 313.446 104.788 313.902 105.292C314.382 105.796 314.958 106.192 315.63 106.48C316.326 106.768 317.106 106.912 317.97 106.912C319.146 106.912 320.166 106.636 321.03 106.084C321.918 105.532 322.602 104.74 323.082 103.708L325.134 105.184C324.534 106.456 323.598 107.488 322.326 108.28C321.054 109.048 319.542 109.432 317.79 109.432ZM317.79 92.404C316.998 92.404 316.278 92.548 315.63 92.836C314.982 93.1 314.418 93.484 313.938 93.988C313.482 94.492 313.122 95.092 312.858 95.788C312.594 96.46 312.462 97.204 312.462 98.02V98.272H322.722V97.876C322.722 96.22 322.266 94.9 321.354 93.916C320.466 92.908 319.278 92.404 317.79 92.404ZM336.144 109.432C334.416 109.432 332.964 109.108 331.788 108.46C330.636 107.788 329.64 106.9 328.8 105.796L330.852 104.14C331.572 105.052 332.376 105.76 333.264 106.264C334.152 106.744 335.184 106.984 336.36 106.984C337.584 106.984 338.532 106.72 339.204 106.192C339.9 105.664 340.248 104.92 340.248 103.96C340.248 103.24 340.008 102.628 339.528 102.124C339.072 101.596 338.232 101.236 337.008 101.044L335.532 100.828C334.668 100.708 333.876 100.528 333.156 100.288C332.436 100.024 331.8 99.688 331.248 99.28C330.72 98.848 330.3 98.32 329.988 97.696C329.7 97.072 329.556 96.328 329.556 95.464C329.556 94.552 329.724 93.76 330.06 93.088C330.396 92.392 330.852 91.816 331.428 91.36C332.028 90.904 332.736 90.568 333.552 90.352C334.368 90.112 335.244 89.992 336.18 89.992C337.692 89.992 338.952 90.256 339.96 90.784C340.992 91.312 341.892 92.044 342.66 92.98L340.752 94.708C340.344 94.132 339.744 93.616 338.952 93.16C338.16 92.68 337.164 92.44 335.964 92.44C334.764 92.44 333.852 92.704 333.228 93.232C332.628 93.736 332.328 94.432 332.328 95.32C332.328 96.232 332.628 96.892 333.228 97.3C333.852 97.708 334.74 98.008 335.892 98.2L337.332 98.416C339.396 98.728 340.86 99.328 341.724 100.216C342.588 101.08 343.02 102.22 343.02 103.636C343.02 105.436 342.408 106.852 341.184 107.884C339.96 108.916 338.28 109.432 336.144 109.432ZM349.547 86.068C348.923 86.068 348.467 85.924 348.179 85.636C347.915 85.324 347.783 84.928 347.783 84.448V83.98C347.783 83.5 347.915 83.116 348.179 82.828C348.467 82.516 348.923 82.36 349.547 82.36C350.171 82.36 350.615 82.516 350.879 82.828C351.167 83.116 351.311 83.5 351.311 83.98V84.448C351.311 84.928 351.167 85.324 350.879 85.636C350.615 85.924 350.171 86.068 349.547 86.068ZM348.107 90.424H350.987V109H348.107V90.424ZM372.767 111.052C372.767 112.972 372.011 114.376 370.499 115.264C369.011 116.176 366.767 116.632 363.767 116.632C360.863 116.632 358.775 116.236 357.503 115.444C356.231 114.652 355.595 113.524 355.595 112.06C355.595 111.052 355.859 110.26 356.387 109.684C356.915 109.132 357.635 108.724 358.547 108.46V108.064C357.443 107.536 356.891 106.672 356.891 105.472C356.891 104.536 357.191 103.828 357.791 103.348C358.391 102.844 359.159 102.472 360.095 102.232V102.088C358.991 101.56 358.127 100.804 357.503 99.82C356.903 98.836 356.603 97.696 356.603 96.4C356.603 95.464 356.771 94.6 357.107 93.808C357.443 93.016 357.911 92.344 358.511 91.792C359.135 91.216 359.867 90.772 360.707 90.46C361.571 90.148 362.531 89.992 363.587 89.992C364.907 89.992 366.083 90.232 367.115 90.712V90.388C367.115 89.668 367.283 89.08 367.619 88.624C367.955 88.144 368.507 87.904 369.275 87.904H372.047V90.424H368.519V91.612C369.191 92.188 369.707 92.884 370.067 93.7C370.451 94.492 370.643 95.392 370.643 96.4C370.643 97.336 370.475 98.2 370.139 98.992C369.803 99.784 369.323 100.468 368.699 101.044C368.099 101.596 367.367 102.028 366.503 102.34C365.639 102.652 364.679 102.808 363.623 102.808C363.023 102.808 362.423 102.748 361.823 102.628C361.199 102.796 360.635 103.048 360.131 103.384C359.627 103.696 359.375 104.14 359.375 104.716C359.375 105.268 359.639 105.64 360.167 105.832C360.695 106.024 361.379 106.12 362.219 106.12H366.179C368.483 106.12 370.151 106.564 371.183 107.452C372.239 108.316 372.767 109.516 372.767 111.052ZM370.067 111.268C370.067 110.524 369.779 109.924 369.203 109.468C368.651 109.036 367.655 108.82 366.215 108.82H360.023C358.871 109.348 358.295 110.188 358.295 111.34C358.295 112.156 358.595 112.852 359.195 113.428C359.819 114.004 360.863 114.292 362.327 114.292H364.991C366.599 114.292 367.847 114.04 368.735 113.536C369.623 113.032 370.067 112.276 370.067 111.268ZM363.623 100.504C364.847 100.504 365.819 100.216 366.539 99.64C367.259 99.04 367.619 98.128 367.619 96.904V95.896C367.619 94.672 367.259 93.772 366.539 93.196C365.819 92.596 364.847 92.296 363.623 92.296C362.399 92.296 361.427 92.596 360.707 93.196C359.987 93.772 359.627 94.672 359.627 95.896V96.904C359.627 98.128 359.987 99.04 360.707 99.64C361.427 100.216 362.399 100.504 363.623 100.504ZM376.126 109V90.424H379.006V93.448H379.15C379.606 92.392 380.242 91.552 381.058 90.928C381.898 90.304 383.014 89.992 384.406 89.992C386.326 89.992 387.838 90.616 388.942 91.864C390.07 93.088 390.634 94.828 390.634 97.084V109H387.754V97.588C387.754 94.252 386.35 92.584 383.542 92.584C382.966 92.584 382.402 92.656 381.85 92.8C381.322 92.944 380.842 93.16 380.41 93.448C379.978 93.736 379.63 94.108 379.366 94.564C379.126 94.996 379.006 95.512 379.006 96.112V109H376.126Z" fill="#335077"/>
<path d="M31.7969 149.253C33.618 140.755 41.9865 135.378 50.4851 137.199L50.1816 138.543C49.5746 141.275 47.5366 143.4 44.8483 144.137C41.8131 144.961 39.3415 147.432 38.6044 150.728L31.7969 149.253Z" fill="#FCC859"/>
<path d="M62.4959 155.887C60.6748 164.386 52.3062 169.763 43.8076 167.942L45.2819 161.134C48.5773 161.828 51.8293 160.614 53.8672 158.186C55.645 156.061 58.42 155.064 61.1517 155.627L62.4959 155.887Z" fill="#30A291"/>
<path d="M0.662552 182.364C-0.591255 180.441 -0.00614503 177.892 1.91636 176.638L37.023 154.028L41.4949 161.007L6.38827 183.617C4.46576 184.829 1.91636 184.286 0.662552 182.364Z" fill="#25414D"/>
<path d="M41.4808 161.017L36.999 154.06L22.6636 163.295L27.1454 170.252L41.4808 161.017Z" fill="#25414D"/>
<path d="M43.8079 167.898C35.3093 166.077 29.9326 157.709 31.7537 149.21L38.5613 150.684C37.5206 155.411 40.5559 160.05 45.2388 161.047L43.8079 167.898Z" fill="#EB674B"/>
<path d="M32.0141 165.86L28.5886 160.527C27.8081 159.313 28.155 157.665 29.3691 156.885L34.0087 153.893L40.3392 163.692L35.6997 166.684C34.4423 167.465 32.7946 167.074 32.0141 165.86Z" fill="#EB674B"/>
<path d="M44.0159 88.4636C46.6292 88.4636 48.7477 86.345 48.7477 83.7318C48.7477 81.1185 46.6292 79 44.0159 79C41.4027 79 39.2842 81.1185 39.2842 83.7318C39.2842 86.345 41.4027 88.4636 44.0159 88.4636Z" fill="#30A291"/>
<path d="M47.7711 102.433C47.7711 111.822 40.1853 119.408 30.7969 119.408V111.822C35.9793 111.822 40.2604 107.616 40.2604 102.358H47.7711V102.433Z" fill="#FCC859"/>
<path d="M30.7975 111.897V119.483C21.4091 119.483 13.8232 111.897 13.8232 102.508H21.4091C21.334 107.616 25.54 111.897 30.7975 111.897Z" fill="#EB674B"/>
<path d="M40.2607 109.569V98.3777C40.2607 94.1717 43.6406 90.7919 47.8466 90.7919V101.983C47.7715 106.189 44.3916 109.569 40.2607 109.569Z" fill="#FCC859"/>
<path d="M21.3339 110.17V86.5859C21.3339 82.3799 17.9541 79 13.748 79V102.584C13.748 106.79 17.1279 110.17 21.3339 110.17Z" fill="#EB674B"/>
<path d="M34.6596 44.7587H20.4336V30.5327C28.2867 30.5327 34.6596 36.9057 34.6596 44.7587Z" fill="#30A291"/>
<path d="M20.4336 33.452V27.8192C29.808 27.8192 37.3732 35.3844 37.3732 44.7588H31.7404C31.7404 38.5092 26.6832 33.452 20.4336 33.452Z" fill="#25414D"/>
<path d="M27.5879 44.7587H41.8139V30.5327C33.9608 30.5327 27.5879 36.9057 27.5879 44.7587Z" fill="#EB674B"/>
<path d="M56.0395 44.7587H41.8135V30.5327C49.6666 30.5327 56.0395 36.9057 56.0395 44.7587Z" fill="#EB674B"/>
<path d="M6.20801 44.7587H20.434V30.5327C12.5809 30.5327 6.20801 36.9057 6.20801 44.7587Z" fill="#30A291"/>
<path d="M3.49414 44.7588C3.49414 35.3844 11.0594 27.8192 20.4338 27.8192V33.452C14.1842 33.452 9.12697 38.5092 9.12697 44.7588H3.49414Z" fill="#25414D"/>
<path d="M40.9912 26.709C46.986 26.709 51.8458 21.8493 51.8458 15.8545C51.8458 9.85975 46.986 5 40.9912 5C34.9965 5 30.1367 9.85975 30.1367 15.8545C30.1367 21.8493 34.9965 26.709 40.9912 26.709Z" fill="#FCC859"/>
<path d="M21.1738 44.7588C21.1738 33.3698 30.4248 24.1188 41.8139 24.1188V30.9851C34.2075 30.9851 28.0401 37.1524 28.0401 44.7588H21.1738Z" fill="#CD573D"/>
<path d="M41.8135 31.0261V24.1598C53.2025 24.1598 62.4535 33.4108 62.4535 44.7998H55.5872C55.5872 37.1523 49.4199 31.0261 41.8135 31.0261Z" fill="#CD573D"/>
<path d="M20.8859 29.4638C25.8135 29.4638 29.808 25.4692 29.808 20.5417C29.808 15.6141 25.8135 11.6196 20.8859 11.6196C15.9584 11.6196 11.9639 15.6141 11.9639 20.5417C11.9639 25.4692 15.9584 29.4638 20.8859 29.4638Z" fill="#FCC859"/>
</svg>
