<svg width="81" height="49" viewBox="0 0 81 49" fill="none" xmlns="http://www.w3.org/2000/svg">
<path d="M47.3643 49H26V0H47.3643C60.4243 0 71 10.9625 71 24.5C71 38.0375 60.3888 49 47.3643 49Z" fill="#30A291"/>
<path d="M56.8391 49H35V0H56.8391C70.1893 0 81 10.9625 81 24.5C81 38.0375 70.153 49 56.8391 49Z" fill="#EB674B"/>
<path d="M57.3438 39H45V10H57.3438C64.8896 10 71 16.488 71 24.5C71 32.512 64.8691 39 57.3438 39Z" fill="#FCC859"/>
<path d="M13.6562 49H26V22H13.6562C6.11042 22 0 28.0405 0 35.5C0 42.9595 6.13092 49 13.6562 49Z" fill="#25414D"/>
</svg>
